<?xml version="1.0" encoding="UTF-8"?>
<svg xmlns="http://www.w3.org/2000/svg" xmlns:xlink="http://www.w3.org/1999/xlink" width="525pt" height="216pt" viewBox="0 0 525 216" version="1.1">
<defs>
<clipPath id="clip1">
  <path d="M 0 0 L 262.5 0 L 262.5 216 L 0 216 Z M 0 0 "/>
</clipPath>
<clipPath id="clip2">
  <path d="M 0.851562 5.667969 L 62 5.667969 L 62 21 L 0.851562 21 Z M 0.851562 5.667969 "/>
</clipPath>
<clipPath id="clip3">
  <path d="M 0.851562 20 L 62 20 L 62 45 L 0.851562 45 Z M 0.851562 20 "/>
</clipPath>
<clipPath id="clip4">
  <path d="M 0.851562 44 L 62 44 L 62 54.496094 L 0.851562 54.496094 Z M 0.851562 44 "/>
</clipPath>
<clipPath id="clip5">
  <path d="M 61 5.667969 L 123 5.667969 L 123 11 L 61 11 Z M 61 5.667969 "/>
</clipPath>
<clipPath id="clip6">
  <path d="M 61 49 L 123 49 L 123 54.496094 L 61 54.496094 Z M 61 49 "/>
</clipPath>
<clipPath id="clip7">
  <path d="M 122 5.667969 L 184 5.667969 L 184 31 L 122 31 Z M 122 5.667969 "/>
</clipPath>
<clipPath id="clip8">
  <path d="M 122 39 L 184 39 L 184 54.496094 L 122 54.496094 Z M 122 39 "/>
</clipPath>
<clipPath id="clip9">
  <path d="M 183 5.667969 L 244.34375 5.667969 L 244.34375 35 L 183 35 Z M 183 5.667969 "/>
</clipPath>
<clipPath id="clip10">
  <path d="M 183 34 L 244.34375 34 L 244.34375 40 L 183 40 Z M 183 34 "/>
</clipPath>
<clipPath id="clip11">
  <path d="M 183 39 L 244.34375 39 L 244.34375 54.496094 L 183 54.496094 Z M 183 39 "/>
</clipPath>
<clipPath id="clip12">
  <path d="M 0.851562 57.332031 L 62 57.332031 L 62 72 L 0.851562 72 Z M 0.851562 57.332031 "/>
</clipPath>
<clipPath id="clip13">
  <path d="M 0.851562 71 L 62 71 L 62 106.160156 L 0.851562 106.160156 Z M 0.851562 71 "/>
</clipPath>
<clipPath id="clip14">
  <path d="M 61 57.332031 L 123 57.332031 L 123 63 L 61 63 Z M 61 57.332031 "/>
</clipPath>
<clipPath id="clip15">
  <path d="M 61 62 L 123 62 L 123 106.160156 L 61 106.160156 Z M 61 62 "/>
</clipPath>
<clipPath id="clip16">
  <path d="M 122 57.332031 L 184 57.332031 L 184 82 L 122 82 Z M 122 57.332031 "/>
</clipPath>
<clipPath id="clip17">
  <path d="M 122 81 L 184 81 L 184 106.160156 L 122 106.160156 Z M 122 81 "/>
</clipPath>
<clipPath id="clip18">
  <path d="M 183 57.332031 L 244.34375 57.332031 L 244.34375 87 L 183 87 Z M 183 57.332031 "/>
</clipPath>
<clipPath id="clip19">
  <path d="M 183 86 L 244.34375 86 L 244.34375 106.160156 L 183 106.160156 Z M 183 86 "/>
</clipPath>
<clipPath id="clip20">
  <path d="M 0.851562 108.992188 L 62 108.992188 L 62 119 L 0.851562 119 Z M 0.851562 108.992188 "/>
</clipPath>
<clipPath id="clip21">
  <path d="M 0.851562 118 L 62 118 L 62 157.820312 L 0.851562 157.820312 Z M 0.851562 118 "/>
</clipPath>
<clipPath id="clip22">
  <path d="M 61 108.992188 L 123 108.992188 L 123 129 L 61 129 Z M 61 108.992188 "/>
</clipPath>
<clipPath id="clip23">
  <path d="M 61 128 L 123 128 L 123 157.820312 L 61 157.820312 Z M 61 128 "/>
</clipPath>
<clipPath id="clip24">
  <path d="M 122 108.992188 L 184 108.992188 L 184 139 L 122 139 Z M 122 108.992188 "/>
</clipPath>
<clipPath id="clip25">
  <path d="M 122 138 L 184 138 L 184 157.820312 L 122 157.820312 Z M 122 138 "/>
</clipPath>
<clipPath id="clip26">
  <path d="M 183 108.992188 L 244.34375 108.992188 L 244.34375 119 L 183 119 Z M 183 108.992188 "/>
</clipPath>
<clipPath id="clip27">
  <path d="M 183 118 L 244.34375 118 L 244.34375 157.820312 L 183 157.820312 Z M 183 118 "/>
</clipPath>
<clipPath id="clip28">
  <path d="M 0.851562 160.652344 L 62 160.652344 L 62 166 L 0.851562 166 Z M 0.851562 160.652344 "/>
</clipPath>
<clipPath id="clip29">
  <path d="M 0.851562 165 L 62 165 L 62 200 L 0.851562 200 Z M 0.851562 165 "/>
</clipPath>
<clipPath id="clip30">
  <path d="M 0.851562 199 L 62 199 L 62 209.480469 L 0.851562 209.480469 Z M 0.851562 199 "/>
</clipPath>
<clipPath id="clip31">
  <path d="M 61 160.652344 L 123 160.652344 L 123 166 L 61 166 Z M 61 160.652344 "/>
</clipPath>
<clipPath id="clip32">
  <path d="M 61 204 L 123 204 L 123 209.480469 L 61 209.480469 Z M 61 204 "/>
</clipPath>
<clipPath id="clip33">
  <path d="M 122 160.652344 L 184 160.652344 L 184 186 L 122 186 Z M 122 160.652344 "/>
</clipPath>
<clipPath id="clip34">
  <path d="M 122 204 L 184 204 L 184 209.480469 L 122 209.480469 Z M 122 204 "/>
</clipPath>
<clipPath id="clip35">
  <path d="M 183 160.652344 L 244.34375 160.652344 L 244.34375 190 L 183 190 Z M 183 160.652344 "/>
</clipPath>
<clipPath id="clip36">
  <path d="M 183 189 L 244.34375 189 L 244.34375 200 L 183 200 Z M 183 189 "/>
</clipPath>
<clipPath id="clip37">
  <path d="M 183 199 L 244.34375 199 L 244.34375 209.480469 L 183 209.480469 Z M 183 199 "/>
</clipPath>
<clipPath id="clip38">
  <path d="M 262.5 0 L 525 0 L 525 216 L 262.5 216 Z M 262.5 0 "/>
</clipPath>
<clipPath id="clip39">
  <path d="M 263.351562 5.667969 L 325 5.667969 L 325 21 L 263.351562 21 Z M 263.351562 5.667969 "/>
</clipPath>
<clipPath id="clip40">
  <path d="M 263.351562 20 L 325 20 L 325 54.496094 L 263.351562 54.496094 Z M 263.351562 20 "/>
</clipPath>
<clipPath id="clip41">
  <path d="M 324 5.667969 L 386 5.667969 L 386 11 L 324 11 Z M 324 5.667969 "/>
</clipPath>
<clipPath id="clip42">
  <path d="M 324 10 L 386 10 L 386 54.496094 L 324 54.496094 Z M 324 10 "/>
</clipPath>
<clipPath id="clip43">
  <path d="M 385 5.667969 L 446 5.667969 L 446 31 L 385 31 Z M 385 5.667969 "/>
</clipPath>
<clipPath id="clip44">
  <path d="M 385 30 L 446 30 L 446 54.496094 L 385 54.496094 Z M 385 30 "/>
</clipPath>
<clipPath id="clip45">
  <path d="M 445 5.667969 L 506.84375 5.667969 L 506.84375 35 L 445 35 Z M 445 5.667969 "/>
</clipPath>
<clipPath id="clip46">
  <path d="M 445 34 L 506.84375 34 L 506.84375 54.496094 L 445 54.496094 Z M 445 34 "/>
</clipPath>
<clipPath id="clip47">
  <path d="M 263.351562 57.332031 L 325 57.332031 L 325 68 L 263.351562 68 Z M 263.351562 57.332031 "/>
</clipPath>
<clipPath id="clip48">
  <path d="M 263.351562 67 L 325 67 L 325 106.160156 L 263.351562 106.160156 Z M 263.351562 67 "/>
</clipPath>
<clipPath id="clip49">
  <path d="M 324 57.332031 L 386 57.332031 L 386 77 L 324 77 Z M 324 57.332031 "/>
</clipPath>
<clipPath id="clip50">
  <path d="M 324 76 L 386 76 L 386 106.160156 L 324 106.160156 Z M 324 76 "/>
</clipPath>
<clipPath id="clip51">
  <path d="M 385 57.332031 L 446 57.332031 L 446 87 L 385 87 Z M 385 57.332031 "/>
</clipPath>
<clipPath id="clip52">
  <path d="M 385 86 L 446 86 L 446 106.160156 L 385 106.160156 Z M 385 86 "/>
</clipPath>
<clipPath id="clip53">
  <path d="M 445 57.332031 L 506.84375 57.332031 L 506.84375 68 L 445 68 Z M 445 57.332031 "/>
</clipPath>
<clipPath id="clip54">
  <path d="M 445 67 L 506.84375 67 L 506.84375 106.160156 L 445 106.160156 Z M 445 67 "/>
</clipPath>
<clipPath id="clip55">
  <path d="M 263.351562 108.992188 L 325 108.992188 L 325 124 L 263.351562 124 Z M 263.351562 108.992188 "/>
</clipPath>
<clipPath id="clip56">
  <path d="M 263.351562 123 L 325 123 L 325 149 L 263.351562 149 Z M 263.351562 123 "/>
</clipPath>
<clipPath id="clip57">
  <path d="M 263.351562 148 L 325 148 L 325 157.820312 L 263.351562 157.820312 Z M 263.351562 148 "/>
</clipPath>
<clipPath id="clip58">
  <path d="M 324 108.992188 L 386 108.992188 L 386 114 L 324 114 Z M 324 108.992188 "/>
</clipPath>
<clipPath id="clip59">
  <path d="M 324 152 L 386 152 L 386 157.820312 L 324 157.820312 Z M 324 152 "/>
</clipPath>
<clipPath id="clip60">
  <path d="M 385 108.992188 L 446 108.992188 L 446 134 L 385 134 Z M 385 108.992188 "/>
</clipPath>
<clipPath id="clip61">
  <path d="M 385 143 L 446 143 L 446 157.820312 L 385 157.820312 Z M 385 143 "/>
</clipPath>
<clipPath id="clip62">
  <path d="M 445 108.992188 L 506.84375 108.992188 L 506.84375 139 L 445 139 Z M 445 108.992188 "/>
</clipPath>
<clipPath id="clip63">
  <path d="M 445 138 L 506.84375 138 L 506.84375 144 L 445 144 Z M 445 138 "/>
</clipPath>
<clipPath id="clip64">
  <path d="M 445 143 L 506.84375 143 L 506.84375 157.820312 L 445 157.820312 Z M 445 143 "/>
</clipPath>
<clipPath id="clip65">
  <path d="M 263.351562 160.652344 L 325 160.652344 L 325 166 L 263.351562 166 Z M 263.351562 160.652344 "/>
</clipPath>
<clipPath id="clip66">
  <path d="M 263.351562 165 L 325 165 L 325 200 L 263.351562 200 Z M 263.351562 165 "/>
</clipPath>
<clipPath id="clip67">
  <path d="M 263.351562 199 L 325 199 L 325 209.480469 L 263.351562 209.480469 Z M 263.351562 199 "/>
</clipPath>
<clipPath id="clip68">
  <path d="M 324 160.652344 L 386 160.652344 L 386 166 L 324 166 Z M 324 160.652344 "/>
</clipPath>
<clipPath id="clip69">
  <path d="M 324 204 L 386 204 L 386 209.480469 L 324 209.480469 Z M 324 204 "/>
</clipPath>
<clipPath id="clip70">
  <path d="M 385 160.652344 L 446 160.652344 L 446 186 L 385 186 Z M 385 160.652344 "/>
</clipPath>
<clipPath id="clip71">
  <path d="M 385 204 L 446 204 L 446 209.480469 L 385 209.480469 Z M 385 204 "/>
</clipPath>
<clipPath id="clip72">
  <path d="M 445 160.652344 L 506.84375 160.652344 L 506.84375 190 L 445 190 Z M 445 160.652344 "/>
</clipPath>
<clipPath id="clip73">
  <path d="M 445 189 L 506.84375 189 L 506.84375 200 L 445 200 Z M 445 189 "/>
</clipPath>
<clipPath id="clip74">
  <path d="M 445 199 L 506.84375 199 L 506.84375 209.480469 L 445 209.480469 Z M 445 199 "/>
</clipPath>
</defs>
<g id="surface1134">
<g clip-path="url(#clip1)" clip-rule="nonzero">
<path style="fill-rule:nonzero;fill:rgb(100%,100%,100%);fill-opacity:1;stroke-width:1.066978;stroke-linecap:round;stroke-linejoin:round;stroke:rgb(100%,100%,100%);stroke-opacity:1;stroke-miterlimit:10;" d="M 0 216 L 262.5 216 L 262.5 0 L 0 0 Z M 0 216 "/>
</g>
<g clip-path="url(#clip2)" clip-rule="nonzero">
<path style=" stroke:none;fill-rule:nonzero;fill:rgb(12.941176%,12.941176%,85.098039%);fill-opacity:1;" d="M 0.851562 20.316406 L 61.726562 20.316406 L 61.726562 5.667969 L 0.851562 5.667969 Z M 0.851562 20.316406 "/>
</g>
<g clip-path="url(#clip3)" clip-rule="nonzero">
<path style=" stroke:none;fill-rule:nonzero;fill:rgb(60%,60%,100%);fill-opacity:1;" d="M 0.851562 44.730469 L 61.726562 44.730469 L 61.726562 20.316406 L 0.851562 20.316406 Z M 0.851562 44.730469 "/>
</g>
<g clip-path="url(#clip4)" clip-rule="nonzero">
<path style=" stroke:none;fill-rule:nonzero;fill:rgb(87.45098%,0.392157%,0.392157%);fill-opacity:1;" d="M 0.851562 54.496094 L 61.726562 54.496094 L 61.726562 44.730469 L 0.851562 44.730469 Z M 0.851562 54.496094 "/>
</g>
<g clip-path="url(#clip5)" clip-rule="nonzero">
<path style=" stroke:none;fill-rule:nonzero;fill:rgb(12.941176%,12.941176%,85.098039%);fill-opacity:1;" d="M 61.722656 10.550781 L 122.597656 10.550781 L 122.597656 5.667969 L 61.722656 5.667969 Z M 61.722656 10.550781 "/>
</g>
<path style=" stroke:none;fill-rule:nonzero;fill:rgb(60%,60%,100%);fill-opacity:1;" d="M 61.722656 49.613281 L 122.597656 49.613281 L 122.597656 10.550781 L 61.722656 10.550781 Z M 61.722656 49.613281 "/>
<g clip-path="url(#clip6)" clip-rule="nonzero">
<path style=" stroke:none;fill-rule:nonzero;fill:rgb(87.45098%,0.392157%,0.392157%);fill-opacity:1;" d="M 61.722656 54.496094 L 122.597656 54.496094 L 122.597656 49.613281 L 61.722656 49.613281 Z M 61.722656 54.496094 "/>
</g>
<g clip-path="url(#clip7)" clip-rule="nonzero">
<path style=" stroke:none;fill-rule:nonzero;fill:rgb(12.941176%,12.941176%,85.098039%);fill-opacity:1;" d="M 122.597656 30.082031 L 183.472656 30.082031 L 183.472656 5.667969 L 122.597656 5.667969 Z M 122.597656 30.082031 "/>
</g>
<path style=" stroke:none;fill-rule:nonzero;fill:rgb(60%,60%,100%);fill-opacity:1;" d="M 122.597656 39.847656 L 183.472656 39.847656 L 183.472656 30.082031 L 122.597656 30.082031 Z M 122.597656 39.847656 "/>
<g clip-path="url(#clip8)" clip-rule="nonzero">
<path style=" stroke:none;fill-rule:nonzero;fill:rgb(87.45098%,0.392157%,0.392157%);fill-opacity:1;" d="M 122.597656 54.496094 L 183.472656 54.496094 L 183.472656 39.847656 L 122.597656 39.847656 Z M 122.597656 54.496094 "/>
</g>
<g clip-path="url(#clip9)" clip-rule="nonzero">
<path style=" stroke:none;fill-rule:nonzero;fill:rgb(12.941176%,12.941176%,85.098039%);fill-opacity:1;" d="M 183.46875 34.964844 L 244.34375 34.964844 L 244.34375 5.667969 L 183.46875 5.667969 Z M 183.46875 34.964844 "/>
</g>
<g clip-path="url(#clip10)" clip-rule="nonzero">
<path style=" stroke:none;fill-rule:nonzero;fill:rgb(60%,60%,100%);fill-opacity:1;" d="M 183.46875 39.847656 L 244.34375 39.847656 L 244.34375 34.964844 L 183.46875 34.964844 Z M 183.46875 39.847656 "/>
</g>
<g clip-path="url(#clip11)" clip-rule="nonzero">
<path style=" stroke:none;fill-rule:nonzero;fill:rgb(87.45098%,0.392157%,0.392157%);fill-opacity:1;" d="M 183.46875 54.496094 L 244.34375 54.496094 L 244.34375 39.847656 L 183.46875 39.847656 Z M 183.46875 54.496094 "/>
</g>
<g clip-path="url(#clip12)" clip-rule="nonzero">
<path style=" stroke:none;fill-rule:nonzero;fill:rgb(12.941176%,12.941176%,85.098039%);fill-opacity:1;" d="M 0.851562 71.980469 L 61.726562 71.980469 L 61.726562 57.332031 L 0.851562 57.332031 Z M 0.851562 71.980469 "/>
</g>
<g clip-path="url(#clip13)" clip-rule="nonzero">
<path style=" stroke:none;fill-rule:nonzero;fill:rgb(60%,60%,100%);fill-opacity:1;" d="M 0.851562 106.15625 L 61.726562 106.15625 L 61.726562 71.976562 L 0.851562 71.976562 Z M 0.851562 106.15625 "/>
</g>
<g clip-path="url(#clip14)" clip-rule="nonzero">
<path style=" stroke:none;fill-rule:nonzero;fill:rgb(12.941176%,12.941176%,85.098039%);fill-opacity:1;" d="M 61.722656 62.214844 L 122.597656 62.214844 L 122.597656 57.332031 L 61.722656 57.332031 Z M 61.722656 62.214844 "/>
</g>
<g clip-path="url(#clip15)" clip-rule="nonzero">
<path style=" stroke:none;fill-rule:nonzero;fill:rgb(60%,60%,100%);fill-opacity:1;" d="M 61.722656 106.15625 L 122.597656 106.15625 L 122.597656 62.210938 L 61.722656 62.210938 Z M 61.722656 106.15625 "/>
</g>
<g clip-path="url(#clip16)" clip-rule="nonzero">
<path style=" stroke:none;fill-rule:nonzero;fill:rgb(12.941176%,12.941176%,85.098039%);fill-opacity:1;" d="M 122.597656 81.742188 L 183.472656 81.742188 L 183.472656 57.328125 L 122.597656 57.328125 Z M 122.597656 81.742188 "/>
</g>
<g clip-path="url(#clip17)" clip-rule="nonzero">
<path style=" stroke:none;fill-rule:nonzero;fill:rgb(60%,60%,100%);fill-opacity:1;" d="M 122.597656 106.15625 L 183.472656 106.15625 L 183.472656 81.742188 L 122.597656 81.742188 Z M 122.597656 106.15625 "/>
</g>
<g clip-path="url(#clip18)" clip-rule="nonzero">
<path style=" stroke:none;fill-rule:nonzero;fill:rgb(12.941176%,12.941176%,85.098039%);fill-opacity:1;" d="M 183.46875 86.625 L 244.34375 86.625 L 244.34375 57.328125 L 183.46875 57.328125 Z M 183.46875 86.625 "/>
</g>
<g clip-path="url(#clip19)" clip-rule="nonzero">
<path style=" stroke:none;fill-rule:nonzero;fill:rgb(60%,60%,100%);fill-opacity:1;" d="M 183.46875 106.15625 L 244.34375 106.15625 L 244.34375 86.625 L 183.46875 86.625 Z M 183.46875 106.15625 "/>
</g>
<g clip-path="url(#clip20)" clip-rule="nonzero">
<path style=" stroke:none;fill-rule:nonzero;fill:rgb(12.941176%,12.941176%,85.098039%);fill-opacity:1;" d="M 0.851562 118.757812 L 61.726562 118.757812 L 61.726562 108.992188 L 0.851562 108.992188 Z M 0.851562 118.757812 "/>
</g>
<g clip-path="url(#clip21)" clip-rule="nonzero">
<path style=" stroke:none;fill-rule:nonzero;fill:rgb(60%,60%,100%);fill-opacity:1;" d="M 0.851562 157.820312 L 61.726562 157.820312 L 61.726562 118.757812 L 0.851562 118.757812 Z M 0.851562 157.820312 "/>
</g>
<g clip-path="url(#clip22)" clip-rule="nonzero">
<path style=" stroke:none;fill-rule:nonzero;fill:rgb(12.941176%,12.941176%,85.098039%);fill-opacity:1;" d="M 61.722656 128.523438 L 122.597656 128.523438 L 122.597656 108.992188 L 61.722656 108.992188 Z M 61.722656 128.523438 "/>
</g>
<g clip-path="url(#clip23)" clip-rule="nonzero">
<path style=" stroke:none;fill-rule:nonzero;fill:rgb(60%,60%,100%);fill-opacity:1;" d="M 61.722656 157.820312 L 122.597656 157.820312 L 122.597656 128.523438 L 61.722656 128.523438 Z M 61.722656 157.820312 "/>
</g>
<g clip-path="url(#clip24)" clip-rule="nonzero">
<path style=" stroke:none;fill-rule:nonzero;fill:rgb(12.941176%,12.941176%,85.098039%);fill-opacity:1;" d="M 122.597656 138.289062 L 183.472656 138.289062 L 183.472656 108.992188 L 122.597656 108.992188 Z M 122.597656 138.289062 "/>
</g>
<g clip-path="url(#clip25)" clip-rule="nonzero">
<path style=" stroke:none;fill-rule:nonzero;fill:rgb(60%,60%,100%);fill-opacity:1;" d="M 122.597656 157.820312 L 183.472656 157.820312 L 183.472656 138.289062 L 122.597656 138.289062 Z M 122.597656 157.820312 "/>
</g>
<g clip-path="url(#clip26)" clip-rule="nonzero">
<path style=" stroke:none;fill-rule:nonzero;fill:rgb(12.941176%,12.941176%,85.098039%);fill-opacity:1;" d="M 183.46875 118.757812 L 244.34375 118.757812 L 244.34375 108.992188 L 183.46875 108.992188 Z M 183.46875 118.757812 "/>
</g>
<g clip-path="url(#clip27)" clip-rule="nonzero">
<path style=" stroke:none;fill-rule:nonzero;fill:rgb(60%,60%,100%);fill-opacity:1;" d="M 183.46875 157.820312 L 244.34375 157.820312 L 244.34375 118.757812 L 183.46875 118.757812 Z M 183.46875 157.820312 "/>
</g>
<g clip-path="url(#clip28)" clip-rule="nonzero">
<path style=" stroke:none;fill-rule:nonzero;fill:rgb(12.941176%,12.941176%,85.098039%);fill-opacity:1;" d="M 0.851562 165.535156 L 61.726562 165.535156 L 61.726562 160.652344 L 0.851562 160.652344 Z M 0.851562 165.535156 "/>
</g>
<g clip-path="url(#clip29)" clip-rule="nonzero">
<path style=" stroke:none;fill-rule:nonzero;fill:rgb(60%,60%,100%);fill-opacity:1;" d="M 0.851562 199.714844 L 61.726562 199.714844 L 61.726562 165.535156 L 0.851562 165.535156 Z M 0.851562 199.714844 "/>
</g>
<g clip-path="url(#clip30)" clip-rule="nonzero">
<path style=" stroke:none;fill-rule:nonzero;fill:rgb(87.45098%,0.392157%,0.392157%);fill-opacity:1;" d="M 0.851562 209.480469 L 61.726562 209.480469 L 61.726562 199.714844 L 0.851562 199.714844 Z M 0.851562 209.480469 "/>
</g>
<g clip-path="url(#clip31)" clip-rule="nonzero">
<path style=" stroke:none;fill-rule:nonzero;fill:rgb(12.941176%,12.941176%,85.098039%);fill-opacity:1;" d="M 61.722656 165.535156 L 122.597656 165.535156 L 122.597656 160.652344 L 61.722656 160.652344 Z M 61.722656 165.535156 "/>
</g>
<path style=" stroke:none;fill-rule:nonzero;fill:rgb(60%,60%,100%);fill-opacity:1;" d="M 61.722656 204.597656 L 122.597656 204.597656 L 122.597656 165.535156 L 61.722656 165.535156 Z M 61.722656 204.597656 "/>
<g clip-path="url(#clip32)" clip-rule="nonzero">
<path style=" stroke:none;fill-rule:nonzero;fill:rgb(87.45098%,0.392157%,0.392157%);fill-opacity:1;" d="M 61.722656 209.480469 L 122.597656 209.480469 L 122.597656 204.597656 L 61.722656 204.597656 Z M 61.722656 209.480469 "/>
</g>
<g clip-path="url(#clip33)" clip-rule="nonzero">
<path style=" stroke:none;fill-rule:nonzero;fill:rgb(12.941176%,12.941176%,85.098039%);fill-opacity:1;" d="M 122.597656 185.066406 L 183.472656 185.066406 L 183.472656 160.652344 L 122.597656 160.652344 Z M 122.597656 185.066406 "/>
</g>
<path style=" stroke:none;fill-rule:nonzero;fill:rgb(60%,60%,100%);fill-opacity:1;" d="M 122.597656 204.597656 L 183.472656 204.597656 L 183.472656 185.066406 L 122.597656 185.066406 Z M 122.597656 204.597656 "/>
<g clip-path="url(#clip34)" clip-rule="nonzero">
<path style=" stroke:none;fill-rule:nonzero;fill:rgb(87.45098%,0.392157%,0.392157%);fill-opacity:1;" d="M 122.597656 209.480469 L 183.472656 209.480469 L 183.472656 204.597656 L 122.597656 204.597656 Z M 122.597656 209.480469 "/>
</g>
<g clip-path="url(#clip35)" clip-rule="nonzero">
<path style=" stroke:none;fill-rule:nonzero;fill:rgb(12.941176%,12.941176%,85.098039%);fill-opacity:1;" d="M 183.46875 189.949219 L 244.34375 189.949219 L 244.34375 160.652344 L 183.46875 160.652344 Z M 183.46875 189.949219 "/>
</g>
<g clip-path="url(#clip36)" clip-rule="nonzero">
<path style=" stroke:none;fill-rule:nonzero;fill:rgb(60%,60%,100%);fill-opacity:1;" d="M 183.46875 199.714844 L 244.34375 199.714844 L 244.34375 189.949219 L 183.46875 189.949219 Z M 183.46875 199.714844 "/>
</g>
<g clip-path="url(#clip37)" clip-rule="nonzero">
<path style=" stroke:none;fill-rule:nonzero;fill:rgb(87.45098%,0.392157%,0.392157%);fill-opacity:1;" d="M 183.46875 209.480469 L 244.34375 209.480469 L 244.34375 199.714844 L 183.46875 199.714844 Z M 183.46875 209.480469 "/>
</g>
<path style=" stroke:none;fill-rule:evenodd;fill:rgb(30.196078%,30.196078%,30.196078%);fill-opacity:1;" d="M 249.6875 26.882812 L 252.609375 24.464844 L 252.007812 23.675781 L 249.6875 23.675781 L 249.6875 22.851562 L 255.738281 22.851562 L 255.738281 23.675781 L 252.707031 23.675781 L 255.738281 26.589844 L 255.738281 27.558594 L 253.109375 24.980469 L 249.6875 27.902344 Z M 249.6875 26.882812 "/>
<path style=" stroke:none;fill-rule:evenodd;fill:rgb(30.196078%,30.196078%,30.196078%);fill-opacity:1;" d="M 253.363281 28.429688 L 254 28.429688 L 254 32.707031 L 253.363281 32.707031 Z M 251.164062 28.429688 L 251.800781 28.429688 L 251.800781 32.707031 L 251.164062 32.707031 Z M 251.164062 28.429688 "/>
<path style=" stroke:none;fill-rule:evenodd;fill:rgb(30.196078%,30.196078%,30.196078%);fill-opacity:1;" d="M 251.355469 37.648438 L 251.273438 37.644531 L 251.195312 37.640625 L 251.113281 37.636719 L 251.039062 37.625 L 250.960938 37.613281 L 250.890625 37.597656 L 250.816406 37.578125 L 250.746094 37.558594 L 250.613281 37.511719 L 250.550781 37.480469 L 250.488281 37.453125 L 250.425781 37.417969 L 250.367188 37.382812 L 250.257812 37.304688 L 250.203125 37.261719 L 250.105469 37.164062 L 250.058594 37.113281 L 250.015625 37.0625 L 249.972656 37.007812 L 249.933594 36.949219 L 249.863281 36.824219 L 249.828125 36.757812 L 249.796875 36.691406 L 249.769531 36.621094 L 249.742188 36.546875 L 249.714844 36.46875 L 249.675781 36.3125 L 249.65625 36.230469 L 249.640625 36.144531 L 249.617188 35.972656 L 249.609375 35.878906 L 249.601562 35.691406 L 249.601562 35.484375 L 249.605469 35.375 L 249.621094 35.171875 L 249.632812 35.074219 L 249.648438 34.980469 L 249.667969 34.890625 L 249.6875 34.804688 L 249.710938 34.722656 L 249.738281 34.644531 L 249.765625 34.570312 L 249.796875 34.496094 L 249.828125 34.425781 L 249.863281 34.359375 L 249.902344 34.292969 L 249.9375 34.234375 L 249.976562 34.171875 L 250.0625 34.0625 L 250.105469 34.011719 L 250.152344 33.964844 L 250.203125 33.917969 L 250.25 33.875 L 250.300781 33.832031 L 250.355469 33.792969 L 250.40625 33.757812 L 250.460938 33.722656 L 250.515625 33.691406 L 250.632812 33.636719 L 250.691406 33.613281 L 250.75 33.59375 L 250.808594 33.570312 L 250.871094 33.550781 L 250.933594 33.535156 L 250.992188 33.519531 L 251.054688 33.507812 L 251.117188 33.492188 L 251.242188 33.476562 L 251.3125 34.273438 L 251.21875 34.289062 L 251.171875 34.300781 L 251.085938 34.324219 L 251.039062 34.335938 L 251 34.351562 L 250.957031 34.363281 L 250.914062 34.382812 L 250.875 34.398438 L 250.835938 34.417969 L 250.800781 34.4375 L 250.761719 34.460938 L 250.691406 34.507812 L 250.660156 34.535156 L 250.625 34.5625 L 250.59375 34.589844 L 250.566406 34.621094 L 250.535156 34.652344 L 250.507812 34.683594 L 250.480469 34.71875 L 250.457031 34.753906 L 250.433594 34.792969 L 250.410156 34.828125 L 250.390625 34.871094 L 250.371094 34.910156 L 250.332031 34.996094 L 250.300781 35.089844 L 250.277344 35.191406 L 250.269531 35.242188 L 250.257812 35.296875 L 250.253906 35.351562 L 250.246094 35.410156 L 250.242188 35.46875 L 250.242188 35.53125 L 250.238281 35.59375 L 250.242188 35.707031 L 250.25 35.816406 L 250.265625 35.921875 L 250.285156 36.019531 L 250.3125 36.113281 L 250.34375 36.203125 L 250.382812 36.289062 L 250.425781 36.367188 L 250.472656 36.441406 L 250.527344 36.507812 L 250.589844 36.574219 L 250.652344 36.628906 L 250.726562 36.679688 L 250.804688 36.722656 L 250.886719 36.761719 L 250.972656 36.789062 L 251.066406 36.8125 L 251.167969 36.832031 L 251.273438 36.839844 L 251.382812 36.84375 L 251.449219 36.84375 L 251.511719 36.835938 L 251.570312 36.832031 L 251.628906 36.820312 L 251.738281 36.789062 L 251.785156 36.769531 L 251.878906 36.722656 L 251.921875 36.695312 L 252 36.632812 L 252.070312 36.5625 L 252.132812 36.492188 L 252.164062 36.449219 L 252.191406 36.410156 L 252.261719 36.28125 L 252.320312 36.140625 L 252.335938 36.09375 L 252.347656 36.046875 L 252.363281 35.996094 L 252.375 35.945312 L 252.382812 35.894531 L 252.394531 35.84375 L 252.398438 35.792969 L 252.414062 35.691406 L 252.417969 35.640625 L 252.429688 35.5 L 252.429688 34.925781 L 253.101562 34.925781 L 253.101562 35.4375 L 253.105469 35.480469 L 253.109375 35.527344 L 253.113281 35.570312 L 253.121094 35.664062 L 253.144531 35.804688 L 253.167969 35.898438 L 253.179688 35.941406 L 253.195312 35.984375 L 253.210938 36.03125 L 253.226562 36.070312 L 253.265625 36.15625 L 253.285156 36.195312 L 253.332031 36.273438 L 253.386719 36.34375 L 253.449219 36.414062 L 253.480469 36.445312 L 253.515625 36.472656 L 253.550781 36.503906 L 253.589844 36.53125 L 253.628906 36.554688 L 253.671875 36.582031 L 253.714844 36.601562 L 253.761719 36.621094 L 253.808594 36.636719 L 253.859375 36.652344 L 253.914062 36.664062 L 254.023438 36.679688 L 254.085938 36.683594 L 254.242188 36.683594 L 254.332031 36.671875 L 254.417969 36.660156 L 254.5 36.640625 L 254.578125 36.613281 L 254.652344 36.582031 L 254.722656 36.542969 L 254.789062 36.5 L 254.851562 36.453125 L 254.910156 36.398438 L 254.964844 36.335938 L 255.011719 36.273438 L 255.054688 36.203125 L 255.09375 36.125 L 255.125 36.042969 L 255.148438 35.957031 L 255.167969 35.863281 L 255.183594 35.765625 L 255.191406 35.660156 L 255.195312 35.550781 L 255.191406 35.449219 L 255.183594 35.355469 L 255.171875 35.261719 L 255.152344 35.171875 L 255.128906 35.085938 L 255.101562 35.007812 L 255.066406 34.929688 L 255.027344 34.855469 L 254.980469 34.785156 L 254.933594 34.722656 L 254.878906 34.660156 L 254.820312 34.605469 L 254.753906 34.554688 L 254.6875 34.511719 L 254.617188 34.472656 L 254.539062 34.4375 L 254.460938 34.410156 L 254.375 34.386719 L 254.285156 34.367188 L 254.191406 34.355469 L 254.253906 33.578125 L 254.410156 33.601562 L 254.484375 33.617188 L 254.554688 33.636719 L 254.628906 33.65625 L 254.695312 33.679688 L 254.828125 33.734375 L 254.890625 33.765625 L 254.949219 33.796875 L 255.007812 33.832031 L 255.171875 33.949219 L 255.21875 33.992188 L 255.269531 34.035156 L 255.3125 34.082031 L 255.359375 34.128906 L 255.4375 34.230469 L 255.515625 34.339844 L 255.546875 34.398438 L 255.582031 34.457031 L 255.609375 34.515625 L 255.640625 34.578125 L 255.6875 34.703125 L 255.710938 34.769531 L 255.730469 34.835938 L 255.75 34.90625 L 255.765625 34.976562 L 255.78125 35.042969 L 255.792969 35.117188 L 255.804688 35.1875 L 255.8125 35.261719 L 255.820312 35.332031 L 255.828125 35.40625 L 255.828125 35.484375 L 255.832031 35.558594 L 255.828125 35.660156 L 255.824219 35.757812 L 255.820312 35.851562 L 255.796875 36.03125 L 255.785156 36.117188 L 255.746094 36.28125 L 255.726562 36.355469 L 255.703125 36.429688 L 255.675781 36.503906 L 255.648438 36.570312 L 255.585938 36.703125 L 255.554688 36.761719 L 255.519531 36.820312 L 255.480469 36.878906 L 255.441406 36.929688 L 255.398438 36.980469 L 255.359375 37.027344 L 255.269531 37.117188 L 255.222656 37.15625 L 255.171875 37.195312 L 255.125 37.230469 L 255.070312 37.261719 L 255.019531 37.292969 L 254.964844 37.320312 L 254.90625 37.34375 L 254.851562 37.367188 L 254.792969 37.390625 L 254.730469 37.410156 L 254.671875 37.425781 L 254.609375 37.441406 L 254.546875 37.453125 L 254.359375 37.476562 L 254.292969 37.480469 L 254.175781 37.480469 L 254.121094 37.476562 L 254.019531 37.46875 L 253.96875 37.460938 L 253.921875 37.453125 L 253.871094 37.445312 L 253.777344 37.421875 L 253.636719 37.375 L 253.550781 37.335938 L 253.507812 37.3125 L 253.46875 37.289062 L 253.425781 37.265625 L 253.347656 37.210938 L 253.277344 37.148438 L 253.171875 37.042969 L 253.140625 37.003906 L 253.109375 36.960938 L 253.078125 36.921875 L 253.050781 36.875 L 253.019531 36.832031 L 252.996094 36.785156 L 252.96875 36.734375 L 252.921875 36.632812 L 252.898438 36.578125 L 252.878906 36.523438 L 252.839844 36.40625 L 252.824219 36.34375 L 252.792969 36.210938 L 252.773438 36.210938 L 252.765625 36.285156 L 252.757812 36.355469 L 252.742188 36.421875 L 252.730469 36.488281 L 252.714844 36.554688 L 252.695312 36.617188 L 252.65625 36.734375 L 252.632812 36.792969 L 252.609375 36.847656 L 252.582031 36.902344 L 252.527344 37.003906 L 252.496094 37.050781 L 252.464844 37.09375 L 252.433594 37.140625 L 252.402344 37.179688 L 252.367188 37.222656 L 252.292969 37.296875 L 252.253906 37.328125 L 252.214844 37.363281 L 252.175781 37.390625 L 252.132812 37.421875 L 252.09375 37.449219 L 252.046875 37.472656 L 252.003906 37.496094 L 251.957031 37.519531 L 251.863281 37.558594 L 251.816406 37.574219 L 251.765625 37.589844 L 251.71875 37.601562 L 251.617188 37.625 L 251.515625 37.640625 L 251.460938 37.644531 L 251.410156 37.644531 Z M 251.355469 37.648438 "/>
<path style=" stroke:none;fill-rule:evenodd;fill:rgb(30.196078%,30.196078%,30.196078%);fill-opacity:1;" d="M 249.6875 78.546875 L 252.609375 76.125 L 252.007812 75.335938 L 249.6875 75.335938 L 249.6875 74.515625 L 255.738281 74.515625 L 255.738281 75.335938 L 252.707031 75.335938 L 255.738281 78.253906 L 255.738281 79.21875 L 253.109375 76.640625 L 249.6875 79.5625 Z M 249.6875 78.546875 "/>
<path style=" stroke:none;fill-rule:evenodd;fill:rgb(30.196078%,30.196078%,30.196078%);fill-opacity:1;" d="M 253.363281 80.09375 L 254 80.09375 L 254 84.367188 L 253.363281 84.367188 Z M 251.164062 80.09375 L 251.800781 80.09375 L 251.800781 84.367188 L 251.164062 84.367188 Z M 251.164062 80.09375 "/>
<path style=" stroke:none;fill-rule:evenodd;fill:rgb(30.196078%,30.196078%,30.196078%);fill-opacity:1;" d="M 249.6875 85.242188 L 250.230469 85.242188 L 250.332031 85.289062 L 250.425781 85.335938 L 250.523438 85.382812 L 250.613281 85.433594 L 250.703125 85.488281 L 250.792969 85.539062 L 251.039062 85.714844 L 251.117188 85.777344 L 251.191406 85.839844 L 251.269531 85.90625 L 251.339844 85.96875 L 251.414062 86.035156 L 251.484375 86.101562 L 251.6875 86.304688 L 251.75 86.375 L 251.8125 86.441406 L 251.9375 86.582031 L 251.996094 86.652344 L 252.054688 86.71875 L 252.113281 86.789062 L 252.171875 86.855469 L 252.230469 86.925781 L 252.285156 86.992188 L 252.339844 87.0625 L 252.394531 87.128906 L 252.445312 87.199219 L 252.5 87.265625 L 252.550781 87.332031 L 252.660156 87.457031 L 252.710938 87.519531 L 252.820312 87.636719 L 252.871094 87.691406 L 252.925781 87.75 L 253.03125 87.855469 L 253.085938 87.90625 L 253.144531 87.953125 L 253.253906 88.039062 L 253.3125 88.082031 L 253.367188 88.121094 L 253.484375 88.191406 L 253.542969 88.222656 L 253.605469 88.253906 L 253.730469 88.300781 L 253.796875 88.320312 L 253.863281 88.335938 L 253.929688 88.347656 L 254 88.355469 L 254.074219 88.363281 L 254.195312 88.363281 L 254.246094 88.359375 L 254.339844 88.351562 L 254.433594 88.335938 L 254.476562 88.324219 L 254.515625 88.3125 L 254.558594 88.300781 L 254.636719 88.269531 L 254.671875 88.253906 L 254.710938 88.234375 L 254.746094 88.214844 L 254.777344 88.191406 L 254.8125 88.167969 L 254.84375 88.144531 L 254.871094 88.117188 L 254.902344 88.089844 L 254.929688 88.0625 L 255.023438 87.9375 L 255.0625 87.867188 L 255.082031 87.828125 L 255.113281 87.75 L 255.125 87.710938 L 255.136719 87.667969 L 255.148438 87.628906 L 255.160156 87.585938 L 255.167969 87.542969 L 255.183594 87.449219 L 255.1875 87.40625 L 255.191406 87.355469 L 255.195312 87.308594 L 255.195312 87.214844 L 255.1875 87.121094 L 255.179688 87.035156 L 255.171875 86.988281 L 255.164062 86.945312 L 255.152344 86.90625 L 255.128906 86.820312 L 255.117188 86.78125 L 255.085938 86.703125 L 255.066406 86.667969 L 255.050781 86.628906 L 255.027344 86.59375 L 255.007812 86.558594 L 254.984375 86.523438 L 254.9375 86.460938 L 254.882812 86.398438 L 254.851562 86.371094 L 254.824219 86.339844 L 254.792969 86.316406 L 254.757812 86.289062 L 254.652344 86.21875 L 254.535156 86.160156 L 254.496094 86.144531 L 254.453125 86.128906 L 254.410156 86.117188 L 254.269531 86.082031 L 254.222656 86.074219 L 254.171875 86.070312 L 254.246094 85.277344 L 254.308594 85.285156 L 254.375 85.296875 L 254.4375 85.3125 L 254.5 85.324219 L 254.5625 85.34375 L 254.621094 85.363281 L 254.683594 85.382812 L 254.800781 85.429688 L 254.859375 85.457031 L 254.914062 85.488281 L 254.972656 85.519531 L 255.023438 85.554688 L 255.078125 85.589844 L 255.179688 85.667969 L 255.273438 85.753906 L 255.316406 85.800781 L 255.363281 85.851562 L 255.40625 85.902344 L 255.445312 85.953125 L 255.484375 86.007812 L 255.523438 86.066406 L 255.558594 86.125 L 255.589844 86.183594 L 255.621094 86.246094 L 255.652344 86.3125 L 255.707031 86.445312 L 255.730469 86.519531 L 255.769531 86.667969 L 255.785156 86.746094 L 255.800781 86.828125 L 255.808594 86.910156 L 255.820312 86.992188 L 255.824219 87.078125 L 255.832031 87.257812 L 255.824219 87.4375 L 255.820312 87.519531 L 255.8125 87.605469 L 255.804688 87.6875 L 255.792969 87.765625 L 255.777344 87.84375 L 255.761719 87.917969 L 255.742188 87.992188 L 255.722656 88.0625 L 255.699219 88.132812 L 255.675781 88.199219 L 255.648438 88.265625 L 255.621094 88.328125 L 255.558594 88.445312 L 255.523438 88.5 L 255.484375 88.554688 L 255.40625 88.65625 L 255.363281 88.703125 L 255.316406 88.75 L 255.269531 88.792969 L 255.167969 88.871094 L 255.117188 88.90625 L 255.0625 88.941406 L 254.945312 89.003906 L 254.886719 89.03125 L 254.820312 89.054688 L 254.757812 89.074219 L 254.691406 89.09375 L 254.621094 89.113281 L 254.480469 89.136719 L 254.40625 89.148438 L 254.171875 89.160156 L 254.109375 89.15625 L 253.992188 89.148438 L 253.933594 89.140625 L 253.757812 89.105469 L 253.648438 89.066406 L 253.589844 89.046875 L 253.535156 89.023438 L 253.484375 89 L 253.429688 88.976562 L 253.375 88.949219 L 253.324219 88.917969 L 253.269531 88.890625 L 253.21875 88.859375 L 253.066406 88.753906 L 253.019531 88.71875 L 252.917969 88.640625 L 252.871094 88.601562 L 252.824219 88.558594 L 252.773438 88.515625 L 252.726562 88.472656 L 252.679688 88.425781 L 252.632812 88.382812 L 252.585938 88.332031 L 252.539062 88.285156 L 252.492188 88.234375 L 252.449219 88.1875 L 252.355469 88.085938 L 252.3125 88.035156 L 252.21875 87.933594 L 252.175781 87.882812 L 252.128906 87.832031 L 252.085938 87.777344 L 252.042969 87.726562 L 252 87.671875 L 251.957031 87.621094 L 251.910156 87.566406 L 251.867188 87.515625 L 251.824219 87.460938 L 251.78125 87.410156 L 251.734375 87.355469 L 251.691406 87.300781 L 251.648438 87.25 L 251.605469 87.195312 L 251.433594 86.992188 L 251.390625 86.945312 L 251.347656 86.894531 L 251.300781 86.847656 L 251.171875 86.707031 L 251.125 86.664062 L 251.082031 86.621094 L 251.035156 86.578125 L 250.992188 86.539062 L 250.949219 86.496094 L 250.902344 86.457031 L 250.855469 86.421875 L 250.8125 86.382812 L 250.765625 86.347656 L 250.722656 86.3125 L 250.675781 86.277344 L 250.628906 86.246094 L 250.488281 86.164062 L 250.441406 86.140625 L 250.390625 86.117188 L 250.34375 86.09375 L 250.34375 89.253906 L 249.6875 89.253906 Z M 249.6875 85.242188 "/>
<path style=" stroke:none;fill-rule:evenodd;fill:rgb(30.196078%,30.196078%,30.196078%);fill-opacity:1;" d="M 249.6875 130.207031 L 252.609375 127.789062 L 252.007812 126.996094 L 249.6875 126.996094 L 249.6875 126.175781 L 255.738281 126.175781 L 255.738281 126.996094 L 252.707031 126.996094 L 255.738281 129.914062 L 255.738281 130.882812 L 253.109375 128.304688 L 249.6875 131.226562 Z M 249.6875 130.207031 "/>
<path style=" stroke:none;fill-rule:evenodd;fill:rgb(30.196078%,30.196078%,30.196078%);fill-opacity:1;" d="M 253.363281 131.753906 L 254 131.753906 L 254 136.027344 L 253.363281 136.027344 Z M 251.164062 131.753906 L 251.800781 131.753906 L 251.800781 136.027344 L 251.164062 136.027344 Z M 251.164062 131.753906 "/>
<path style=" stroke:none;fill-rule:evenodd;fill:rgb(30.196078%,30.196078%,30.196078%);fill-opacity:1;" d="M 249.6875 136.90625 L 250.230469 136.90625 L 250.332031 136.949219 L 250.425781 136.996094 L 250.523438 137.046875 L 250.703125 137.148438 L 250.792969 137.203125 L 250.875 137.257812 L 251.039062 137.375 L 251.117188 137.4375 L 251.191406 137.503906 L 251.269531 137.566406 L 251.339844 137.632812 L 251.414062 137.699219 L 251.484375 137.761719 L 251.550781 137.832031 L 251.621094 137.898438 L 251.6875 137.964844 L 251.8125 138.105469 L 251.875 138.171875 L 251.9375 138.242188 L 252.054688 138.382812 L 252.113281 138.449219 L 252.171875 138.519531 L 252.230469 138.585938 L 252.285156 138.65625 L 252.339844 138.722656 L 252.394531 138.792969 L 252.445312 138.859375 L 252.5 138.925781 L 252.550781 138.992188 L 252.660156 139.117188 L 252.710938 139.179688 L 252.820312 139.296875 L 252.871094 139.355469 L 253.03125 139.515625 L 253.085938 139.566406 L 253.144531 139.613281 L 253.199219 139.660156 L 253.253906 139.703125 L 253.3125 139.742188 L 253.367188 139.78125 L 253.425781 139.820312 L 253.484375 139.851562 L 253.542969 139.886719 L 253.667969 139.941406 L 253.730469 139.964844 L 253.863281 139.996094 L 253.929688 140.007812 L 254 140.019531 L 254.074219 140.023438 L 254.246094 140.023438 L 254.292969 140.019531 L 254.433594 139.996094 L 254.476562 139.988281 L 254.515625 139.976562 L 254.558594 139.960938 L 254.597656 139.949219 L 254.636719 139.929688 L 254.671875 139.914062 L 254.710938 139.894531 L 254.746094 139.875 L 254.777344 139.851562 L 254.8125 139.828125 L 254.84375 139.804688 L 254.871094 139.78125 L 254.902344 139.753906 L 254.929688 139.722656 L 254.953125 139.695312 L 255 139.632812 L 255.023438 139.597656 L 255.0625 139.527344 L 255.082031 139.488281 L 255.097656 139.453125 L 255.113281 139.414062 L 255.125 139.371094 L 255.136719 139.332031 L 255.160156 139.246094 L 255.167969 139.203125 L 255.175781 139.15625 L 255.183594 139.113281 L 255.191406 139.019531 L 255.195312 138.96875 L 255.195312 138.875 L 255.191406 138.828125 L 255.1875 138.785156 L 255.183594 138.738281 L 255.179688 138.695312 L 255.164062 138.609375 L 255.128906 138.480469 L 255.117188 138.441406 L 255.085938 138.363281 L 255.066406 138.328125 L 255.050781 138.292969 L 255.027344 138.253906 L 255.007812 138.21875 L 254.984375 138.1875 L 254.960938 138.152344 L 254.9375 138.121094 L 254.882812 138.058594 L 254.851562 138.03125 L 254.824219 138.003906 L 254.792969 137.976562 L 254.757812 137.949219 L 254.652344 137.878906 L 254.574219 137.839844 L 254.535156 137.824219 L 254.496094 137.804688 L 254.453125 137.792969 L 254.410156 137.777344 L 254.316406 137.753906 L 254.222656 137.738281 L 254.171875 137.730469 L 254.246094 136.941406 L 254.308594 136.949219 L 254.375 136.960938 L 254.4375 136.972656 L 254.5625 137.003906 L 254.621094 137.023438 L 254.683594 137.042969 L 254.742188 137.066406 L 254.859375 137.121094 L 254.914062 137.148438 L 254.972656 137.179688 L 255.023438 137.214844 L 255.078125 137.25 L 255.179688 137.328125 L 255.273438 137.414062 L 255.316406 137.460938 L 255.363281 137.511719 L 255.40625 137.5625 L 255.445312 137.613281 L 255.484375 137.667969 L 255.523438 137.726562 L 255.558594 137.785156 L 255.652344 137.972656 L 255.679688 138.039062 L 255.707031 138.109375 L 255.730469 138.179688 L 255.769531 138.328125 L 255.785156 138.40625 L 255.800781 138.488281 L 255.808594 138.570312 L 255.820312 138.65625 L 255.828125 138.828125 L 255.832031 138.921875 L 255.828125 139.011719 L 255.820312 139.183594 L 255.804688 139.347656 L 255.792969 139.425781 L 255.777344 139.503906 L 255.761719 139.578125 L 255.742188 139.652344 L 255.722656 139.722656 L 255.699219 139.792969 L 255.675781 139.859375 L 255.648438 139.925781 L 255.621094 139.988281 L 255.558594 140.105469 L 255.523438 140.164062 L 255.484375 140.214844 L 255.445312 140.269531 L 255.40625 140.316406 L 255.363281 140.363281 L 255.316406 140.410156 L 255.269531 140.453125 L 255.21875 140.496094 L 255.167969 140.53125 L 255.117188 140.570312 L 255.0625 140.601562 L 254.945312 140.664062 L 254.886719 140.691406 L 254.820312 140.714844 L 254.757812 140.738281 L 254.691406 140.757812 L 254.550781 140.789062 L 254.480469 140.800781 L 254.40625 140.808594 L 254.328125 140.816406 L 254.25 140.820312 L 254.109375 140.820312 L 254.050781 140.816406 L 253.875 140.792969 L 253.816406 140.78125 L 253.757812 140.765625 L 253.703125 140.75 L 253.648438 140.730469 L 253.589844 140.707031 L 253.535156 140.6875 L 253.484375 140.660156 L 253.429688 140.636719 L 253.375 140.609375 L 253.324219 140.582031 L 253.269531 140.550781 L 253.167969 140.488281 L 253.117188 140.453125 L 253.066406 140.414062 L 253.019531 140.378906 L 252.917969 140.300781 L 252.871094 140.261719 L 252.824219 140.21875 L 252.773438 140.175781 L 252.679688 140.089844 L 252.585938 139.996094 L 252.539062 139.945312 L 252.492188 139.898438 L 252.449219 139.847656 L 252.402344 139.800781 L 252.355469 139.75 L 252.3125 139.699219 L 252.21875 139.597656 L 252.175781 139.542969 L 252.128906 139.492188 L 252.085938 139.441406 L 252.042969 139.386719 L 252 139.335938 L 251.957031 139.28125 L 251.910156 139.230469 L 251.824219 139.121094 L 251.78125 139.070312 L 251.734375 139.015625 L 251.691406 138.964844 L 251.648438 138.910156 L 251.605469 138.859375 L 251.5625 138.804688 L 251.476562 138.703125 L 251.433594 138.65625 L 251.347656 138.554688 L 251.300781 138.507812 L 251.214844 138.414062 L 251.082031 138.28125 L 251.035156 138.242188 L 250.992188 138.199219 L 250.949219 138.160156 L 250.855469 138.082031 L 250.8125 138.042969 L 250.765625 138.007812 L 250.722656 137.972656 L 250.582031 137.878906 L 250.488281 137.824219 L 250.441406 137.800781 L 250.390625 137.777344 L 250.34375 137.757812 L 250.34375 140.914062 L 249.6875 140.914062 Z M 249.6875 136.90625 "/>
<path style=" stroke:none;fill-rule:evenodd;fill:rgb(30.196078%,30.196078%,30.196078%);fill-opacity:1;" d="M 249.6875 181.867188 L 252.609375 179.449219 L 252.007812 178.65625 L 249.6875 178.65625 L 249.6875 177.835938 L 255.738281 177.835938 L 255.738281 178.65625 L 252.707031 178.65625 L 255.738281 181.574219 L 255.738281 182.542969 L 253.109375 179.964844 L 249.6875 182.886719 Z M 249.6875 181.867188 "/>
<path style=" stroke:none;fill-rule:evenodd;fill:rgb(30.196078%,30.196078%,30.196078%);fill-opacity:1;" d="M 253.363281 183.414062 L 254 183.414062 L 254 187.691406 L 253.363281 187.691406 Z M 251.164062 183.414062 L 251.800781 183.414062 L 251.800781 187.691406 L 251.164062 187.691406 Z M 251.164062 183.414062 "/>
<path style=" stroke:none;fill-rule:evenodd;fill:rgb(30.196078%,30.196078%,30.196078%);fill-opacity:1;" d="M 251.355469 192.632812 L 251.273438 192.628906 L 251.195312 192.625 L 251.113281 192.621094 L 251.039062 192.609375 L 250.960938 192.597656 L 250.890625 192.582031 L 250.816406 192.5625 L 250.746094 192.542969 L 250.679688 192.519531 L 250.613281 192.492188 L 250.488281 192.4375 L 250.425781 192.402344 L 250.367188 192.367188 L 250.257812 192.289062 L 250.203125 192.246094 L 250.105469 192.148438 L 250.058594 192.097656 L 250.015625 192.046875 L 249.972656 191.992188 L 249.933594 191.933594 L 249.863281 191.808594 L 249.828125 191.742188 L 249.796875 191.675781 L 249.769531 191.605469 L 249.742188 191.53125 L 249.714844 191.453125 L 249.675781 191.296875 L 249.65625 191.214844 L 249.640625 191.128906 L 249.617188 190.957031 L 249.609375 190.863281 L 249.601562 190.675781 L 249.601562 190.46875 L 249.605469 190.359375 L 249.613281 190.253906 L 249.621094 190.15625 L 249.632812 190.058594 L 249.648438 189.964844 L 249.667969 189.875 L 249.6875 189.789062 L 249.710938 189.707031 L 249.738281 189.628906 L 249.765625 189.554688 L 249.796875 189.480469 L 249.828125 189.410156 L 249.863281 189.34375 L 249.902344 189.277344 L 249.9375 189.21875 L 249.976562 189.15625 L 250.0625 189.046875 L 250.105469 188.996094 L 250.152344 188.949219 L 250.203125 188.902344 L 250.25 188.859375 L 250.300781 188.816406 L 250.355469 188.777344 L 250.40625 188.742188 L 250.460938 188.707031 L 250.515625 188.675781 L 250.632812 188.621094 L 250.691406 188.597656 L 250.75 188.578125 L 250.808594 188.554688 L 250.871094 188.535156 L 250.933594 188.519531 L 250.992188 188.503906 L 251.054688 188.492188 L 251.117188 188.476562 L 251.242188 188.460938 L 251.3125 189.257812 L 251.21875 189.273438 L 251.171875 189.285156 L 251.085938 189.308594 L 251.039062 189.320312 L 251 189.335938 L 250.957031 189.347656 L 250.914062 189.367188 L 250.875 189.382812 L 250.835938 189.402344 L 250.800781 189.421875 L 250.761719 189.445312 L 250.691406 189.492188 L 250.660156 189.519531 L 250.625 189.546875 L 250.59375 189.574219 L 250.566406 189.605469 L 250.535156 189.636719 L 250.507812 189.667969 L 250.480469 189.703125 L 250.457031 189.738281 L 250.433594 189.777344 L 250.410156 189.8125 L 250.390625 189.855469 L 250.371094 189.894531 L 250.332031 189.980469 L 250.300781 190.074219 L 250.277344 190.175781 L 250.269531 190.226562 L 250.257812 190.28125 L 250.253906 190.335938 L 250.246094 190.394531 L 250.242188 190.453125 L 250.242188 190.515625 L 250.238281 190.578125 L 250.242188 190.691406 L 250.25 190.800781 L 250.265625 190.90625 L 250.285156 191.003906 L 250.3125 191.097656 L 250.34375 191.1875 L 250.382812 191.273438 L 250.425781 191.351562 L 250.472656 191.425781 L 250.527344 191.492188 L 250.589844 191.554688 L 250.652344 191.613281 L 250.726562 191.664062 L 250.804688 191.707031 L 250.886719 191.746094 L 250.972656 191.773438 L 251.066406 191.796875 L 251.167969 191.816406 L 251.273438 191.824219 L 251.382812 191.828125 L 251.449219 191.828125 L 251.511719 191.820312 L 251.570312 191.816406 L 251.628906 191.804688 L 251.738281 191.773438 L 251.785156 191.753906 L 251.878906 191.707031 L 251.921875 191.675781 L 251.960938 191.648438 L 252 191.617188 L 252.070312 191.546875 L 252.101562 191.511719 L 252.164062 191.433594 L 252.191406 191.394531 L 252.261719 191.265625 L 252.320312 191.125 L 252.335938 191.078125 L 252.347656 191.03125 L 252.363281 190.980469 L 252.375 190.929688 L 252.382812 190.878906 L 252.394531 190.828125 L 252.398438 190.777344 L 252.414062 190.675781 L 252.417969 190.625 L 252.429688 190.484375 L 252.429688 189.910156 L 253.101562 189.910156 L 253.101562 190.421875 L 253.105469 190.464844 L 253.109375 190.511719 L 253.113281 190.554688 L 253.121094 190.648438 L 253.144531 190.789062 L 253.167969 190.882812 L 253.179688 190.925781 L 253.195312 190.96875 L 253.210938 191.015625 L 253.226562 191.054688 L 253.265625 191.140625 L 253.285156 191.179688 L 253.332031 191.257812 L 253.386719 191.328125 L 253.449219 191.398438 L 253.480469 191.429688 L 253.515625 191.457031 L 253.550781 191.488281 L 253.589844 191.515625 L 253.628906 191.539062 L 253.671875 191.566406 L 253.714844 191.585938 L 253.761719 191.605469 L 253.808594 191.621094 L 253.859375 191.636719 L 253.914062 191.648438 L 254.023438 191.664062 L 254.085938 191.667969 L 254.242188 191.667969 L 254.332031 191.65625 L 254.417969 191.644531 L 254.5 191.621094 L 254.578125 191.597656 L 254.652344 191.566406 L 254.722656 191.527344 L 254.789062 191.484375 L 254.851562 191.4375 L 254.910156 191.382812 L 254.964844 191.320312 L 255.011719 191.257812 L 255.054688 191.1875 L 255.09375 191.109375 L 255.125 191.027344 L 255.148438 190.941406 L 255.167969 190.847656 L 255.183594 190.75 L 255.191406 190.644531 L 255.195312 190.535156 L 255.191406 190.433594 L 255.183594 190.339844 L 255.171875 190.246094 L 255.152344 190.15625 L 255.128906 190.070312 L 255.101562 189.992188 L 255.066406 189.914062 L 255.027344 189.839844 L 254.980469 189.769531 L 254.933594 189.707031 L 254.878906 189.644531 L 254.820312 189.589844 L 254.753906 189.539062 L 254.6875 189.496094 L 254.617188 189.457031 L 254.539062 189.421875 L 254.460938 189.394531 L 254.375 189.371094 L 254.285156 189.351562 L 254.191406 189.339844 L 254.253906 188.5625 L 254.410156 188.585938 L 254.484375 188.601562 L 254.554688 188.621094 L 254.628906 188.640625 L 254.695312 188.664062 L 254.828125 188.71875 L 254.890625 188.75 L 254.949219 188.78125 L 255.007812 188.816406 L 255.171875 188.933594 L 255.21875 188.976562 L 255.269531 189.019531 L 255.3125 189.066406 L 255.359375 189.113281 L 255.4375 189.214844 L 255.515625 189.324219 L 255.546875 189.382812 L 255.582031 189.441406 L 255.609375 189.5 L 255.640625 189.5625 L 255.6875 189.6875 L 255.710938 189.753906 L 255.730469 189.820312 L 255.75 189.890625 L 255.765625 189.957031 L 255.78125 190.027344 L 255.792969 190.101562 L 255.804688 190.171875 L 255.8125 190.246094 L 255.820312 190.316406 L 255.828125 190.390625 L 255.828125 190.46875 L 255.832031 190.542969 L 255.828125 190.644531 L 255.824219 190.742188 L 255.820312 190.835938 L 255.796875 191.015625 L 255.785156 191.101562 L 255.746094 191.265625 L 255.726562 191.339844 L 255.703125 191.414062 L 255.675781 191.488281 L 255.648438 191.554688 L 255.585938 191.6875 L 255.554688 191.746094 L 255.519531 191.804688 L 255.480469 191.863281 L 255.441406 191.914062 L 255.398438 191.964844 L 255.359375 192.011719 L 255.269531 192.101562 L 255.222656 192.140625 L 255.171875 192.179688 L 255.125 192.214844 L 255.070312 192.246094 L 255.019531 192.277344 L 254.964844 192.304688 L 254.90625 192.328125 L 254.851562 192.351562 L 254.792969 192.375 L 254.730469 192.390625 L 254.671875 192.410156 L 254.609375 192.421875 L 254.546875 192.4375 L 254.359375 192.460938 L 254.292969 192.460938 L 254.226562 192.464844 L 254.175781 192.464844 L 254.121094 192.460938 L 254.019531 192.453125 L 253.96875 192.445312 L 253.921875 192.4375 L 253.871094 192.429688 L 253.777344 192.40625 L 253.636719 192.359375 L 253.550781 192.320312 L 253.507812 192.296875 L 253.46875 192.273438 L 253.425781 192.25 L 253.386719 192.222656 L 253.347656 192.191406 L 253.3125 192.164062 L 253.277344 192.132812 L 253.171875 192.027344 L 253.140625 191.988281 L 253.109375 191.945312 L 253.078125 191.90625 L 253.050781 191.859375 L 253.019531 191.816406 L 252.996094 191.769531 L 252.96875 191.71875 L 252.921875 191.617188 L 252.898438 191.5625 L 252.878906 191.507812 L 252.859375 191.449219 L 252.839844 191.386719 L 252.824219 191.328125 L 252.792969 191.195312 L 252.773438 191.195312 L 252.765625 191.269531 L 252.757812 191.339844 L 252.742188 191.40625 L 252.730469 191.472656 L 252.714844 191.539062 L 252.695312 191.601562 L 252.65625 191.71875 L 252.632812 191.777344 L 252.609375 191.832031 L 252.582031 191.886719 L 252.554688 191.9375 L 252.527344 191.984375 L 252.496094 192.035156 L 252.464844 192.078125 L 252.433594 192.125 L 252.402344 192.164062 L 252.332031 192.242188 L 252.214844 192.347656 L 252.175781 192.375 L 252.132812 192.40625 L 252.09375 192.433594 L 252.046875 192.457031 L 252.003906 192.480469 L 251.957031 192.503906 L 251.863281 192.542969 L 251.816406 192.558594 L 251.765625 192.574219 L 251.71875 192.585938 L 251.617188 192.609375 L 251.515625 192.625 L 251.460938 192.628906 L 251.410156 192.628906 Z M 251.355469 192.632812 "/>
<g clip-path="url(#clip38)" clip-rule="nonzero">
<path style="fill-rule:evenodd;fill:rgb(100%,100%,100%);fill-opacity:1;stroke-width:1.066978;stroke-linecap:round;stroke-linejoin:round;stroke:rgb(100%,100%,100%);stroke-opacity:1;stroke-miterlimit:10;" d="M 262.5 216 L 525 216 L 525 0 L 262.5 0 Z M 262.5 216 "/>
</g>
<g clip-path="url(#clip39)" clip-rule="nonzero">
<path style=" stroke:none;fill-rule:evenodd;fill:rgb(12.941176%,12.941176%,85.098039%);fill-opacity:1;" d="M 263.351562 20.316406 L 324.226562 20.316406 L 324.226562 5.667969 L 263.351562 5.667969 Z M 263.351562 20.316406 "/>
</g>
<g clip-path="url(#clip40)" clip-rule="nonzero">
<path style=" stroke:none;fill-rule:evenodd;fill:rgb(60%,60%,100%);fill-opacity:1;" d="M 263.351562 54.496094 L 324.226562 54.496094 L 324.226562 20.316406 L 263.351562 20.316406 Z M 263.351562 54.496094 "/>
</g>
<g clip-path="url(#clip41)" clip-rule="nonzero">
<path style=" stroke:none;fill-rule:evenodd;fill:rgb(12.941176%,12.941176%,85.098039%);fill-opacity:1;" d="M 324.222656 10.550781 L 385.097656 10.550781 L 385.097656 5.667969 L 324.222656 5.667969 Z M 324.222656 10.550781 "/>
</g>
<g clip-path="url(#clip42)" clip-rule="nonzero">
<path style=" stroke:none;fill-rule:evenodd;fill:rgb(60%,60%,100%);fill-opacity:1;" d="M 324.222656 54.496094 L 385.097656 54.496094 L 385.097656 10.550781 L 324.222656 10.550781 Z M 324.222656 54.496094 "/>
</g>
<g clip-path="url(#clip43)" clip-rule="nonzero">
<path style=" stroke:none;fill-rule:evenodd;fill:rgb(12.941176%,12.941176%,85.098039%);fill-opacity:1;" d="M 385.097656 30.082031 L 445.972656 30.082031 L 445.972656 5.667969 L 385.097656 5.667969 Z M 385.097656 30.082031 "/>
</g>
<g clip-path="url(#clip44)" clip-rule="nonzero">
<path style=" stroke:none;fill-rule:evenodd;fill:rgb(60%,60%,100%);fill-opacity:1;" d="M 385.097656 54.496094 L 445.972656 54.496094 L 445.972656 30.082031 L 385.097656 30.082031 Z M 385.097656 54.496094 "/>
</g>
<g clip-path="url(#clip45)" clip-rule="nonzero">
<path style=" stroke:none;fill-rule:evenodd;fill:rgb(12.941176%,12.941176%,85.098039%);fill-opacity:1;" d="M 445.96875 34.964844 L 506.84375 34.964844 L 506.84375 5.667969 L 445.96875 5.667969 Z M 445.96875 34.964844 "/>
</g>
<g clip-path="url(#clip46)" clip-rule="nonzero">
<path style=" stroke:none;fill-rule:evenodd;fill:rgb(60%,60%,100%);fill-opacity:1;" d="M 445.96875 54.496094 L 506.84375 54.496094 L 506.84375 34.964844 L 445.96875 34.964844 Z M 445.96875 54.496094 "/>
</g>
<g clip-path="url(#clip47)" clip-rule="nonzero">
<path style=" stroke:none;fill-rule:evenodd;fill:rgb(12.941176%,12.941176%,85.098039%);fill-opacity:1;" d="M 263.351562 67.097656 L 324.226562 67.097656 L 324.226562 57.332031 L 263.351562 57.332031 Z M 263.351562 67.097656 "/>
</g>
<g clip-path="url(#clip48)" clip-rule="nonzero">
<path style=" stroke:none;fill-rule:evenodd;fill:rgb(60%,60%,100%);fill-opacity:1;" d="M 263.351562 106.15625 L 324.226562 106.15625 L 324.226562 67.09375 L 263.351562 67.09375 Z M 263.351562 106.15625 "/>
</g>
<g clip-path="url(#clip49)" clip-rule="nonzero">
<path style=" stroke:none;fill-rule:evenodd;fill:rgb(12.941176%,12.941176%,85.098039%);fill-opacity:1;" d="M 324.222656 76.863281 L 385.097656 76.863281 L 385.097656 57.332031 L 324.222656 57.332031 Z M 324.222656 76.863281 "/>
</g>
<g clip-path="url(#clip50)" clip-rule="nonzero">
<path style=" stroke:none;fill-rule:evenodd;fill:rgb(60%,60%,100%);fill-opacity:1;" d="M 324.222656 106.15625 L 385.097656 106.15625 L 385.097656 76.859375 L 324.222656 76.859375 Z M 324.222656 106.15625 "/>
</g>
<g clip-path="url(#clip51)" clip-rule="nonzero">
<path style=" stroke:none;fill-rule:evenodd;fill:rgb(12.941176%,12.941176%,85.098039%);fill-opacity:1;" d="M 385.097656 86.625 L 445.972656 86.625 L 445.972656 57.328125 L 385.097656 57.328125 Z M 385.097656 86.625 "/>
</g>
<g clip-path="url(#clip52)" clip-rule="nonzero">
<path style=" stroke:none;fill-rule:evenodd;fill:rgb(60%,60%,100%);fill-opacity:1;" d="M 385.097656 106.15625 L 445.972656 106.15625 L 445.972656 86.625 L 385.097656 86.625 Z M 385.097656 106.15625 "/>
</g>
<g clip-path="url(#clip53)" clip-rule="nonzero">
<path style=" stroke:none;fill-rule:evenodd;fill:rgb(12.941176%,12.941176%,85.098039%);fill-opacity:1;" d="M 445.96875 67.097656 L 506.84375 67.097656 L 506.84375 57.332031 L 445.96875 57.332031 Z M 445.96875 67.097656 "/>
</g>
<g clip-path="url(#clip54)" clip-rule="nonzero">
<path style=" stroke:none;fill-rule:evenodd;fill:rgb(60%,60%,100%);fill-opacity:1;" d="M 445.96875 106.15625 L 506.84375 106.15625 L 506.84375 67.09375 L 445.96875 67.09375 Z M 445.96875 106.15625 "/>
</g>
<g clip-path="url(#clip55)" clip-rule="nonzero">
<path style=" stroke:none;fill-rule:evenodd;fill:rgb(12.941176%,12.941176%,85.098039%);fill-opacity:1;" d="M 263.351562 123.640625 L 324.226562 123.640625 L 324.226562 108.992188 L 263.351562 108.992188 Z M 263.351562 123.640625 "/>
</g>
<g clip-path="url(#clip56)" clip-rule="nonzero">
<path style=" stroke:none;fill-rule:evenodd;fill:rgb(60%,60%,100%);fill-opacity:1;" d="M 263.351562 148.054688 L 324.226562 148.054688 L 324.226562 123.640625 L 263.351562 123.640625 Z M 263.351562 148.054688 "/>
</g>
<g clip-path="url(#clip57)" clip-rule="nonzero">
<path style=" stroke:none;fill-rule:evenodd;fill:rgb(87.45098%,0.392157%,0.392157%);fill-opacity:1;" d="M 263.351562 157.820312 L 324.226562 157.820312 L 324.226562 148.054688 L 263.351562 148.054688 Z M 263.351562 157.820312 "/>
</g>
<g clip-path="url(#clip58)" clip-rule="nonzero">
<path style=" stroke:none;fill-rule:evenodd;fill:rgb(12.941176%,12.941176%,85.098039%);fill-opacity:1;" d="M 324.222656 113.875 L 385.097656 113.875 L 385.097656 108.992188 L 324.222656 108.992188 Z M 324.222656 113.875 "/>
</g>
<path style=" stroke:none;fill-rule:evenodd;fill:rgb(60%,60%,100%);fill-opacity:1;" d="M 324.222656 152.9375 L 385.097656 152.9375 L 385.097656 113.875 L 324.222656 113.875 Z M 324.222656 152.9375 "/>
<g clip-path="url(#clip59)" clip-rule="nonzero">
<path style=" stroke:none;fill-rule:evenodd;fill:rgb(87.45098%,0.392157%,0.392157%);fill-opacity:1;" d="M 324.222656 157.820312 L 385.097656 157.820312 L 385.097656 152.9375 L 324.222656 152.9375 Z M 324.222656 157.820312 "/>
</g>
<g clip-path="url(#clip60)" clip-rule="nonzero">
<path style=" stroke:none;fill-rule:evenodd;fill:rgb(12.941176%,12.941176%,85.098039%);fill-opacity:1;" d="M 385.097656 133.40625 L 445.972656 133.40625 L 445.972656 108.992188 L 385.097656 108.992188 Z M 385.097656 133.40625 "/>
</g>
<path style=" stroke:none;fill-rule:evenodd;fill:rgb(60%,60%,100%);fill-opacity:1;" d="M 385.097656 143.171875 L 445.972656 143.171875 L 445.972656 133.40625 L 385.097656 133.40625 Z M 385.097656 143.171875 "/>
<g clip-path="url(#clip61)" clip-rule="nonzero">
<path style=" stroke:none;fill-rule:evenodd;fill:rgb(87.45098%,0.392157%,0.392157%);fill-opacity:1;" d="M 385.097656 157.820312 L 445.972656 157.820312 L 445.972656 143.171875 L 385.097656 143.171875 Z M 385.097656 157.820312 "/>
</g>
<g clip-path="url(#clip62)" clip-rule="nonzero">
<path style=" stroke:none;fill-rule:evenodd;fill:rgb(12.941176%,12.941176%,85.098039%);fill-opacity:1;" d="M 445.96875 138.289062 L 506.84375 138.289062 L 506.84375 108.992188 L 445.96875 108.992188 Z M 445.96875 138.289062 "/>
</g>
<g clip-path="url(#clip63)" clip-rule="nonzero">
<path style=" stroke:none;fill-rule:evenodd;fill:rgb(60%,60%,100%);fill-opacity:1;" d="M 445.96875 143.171875 L 506.84375 143.171875 L 506.84375 138.289062 L 445.96875 138.289062 Z M 445.96875 143.171875 "/>
</g>
<g clip-path="url(#clip64)" clip-rule="nonzero">
<path style=" stroke:none;fill-rule:evenodd;fill:rgb(87.45098%,0.392157%,0.392157%);fill-opacity:1;" d="M 445.96875 157.820312 L 506.84375 157.820312 L 506.84375 143.171875 L 445.96875 143.171875 Z M 445.96875 157.820312 "/>
</g>
<g clip-path="url(#clip65)" clip-rule="nonzero">
<path style=" stroke:none;fill-rule:evenodd;fill:rgb(12.941176%,12.941176%,85.098039%);fill-opacity:1;" d="M 263.351562 165.535156 L 324.226562 165.535156 L 324.226562 160.652344 L 263.351562 160.652344 Z M 263.351562 165.535156 "/>
</g>
<g clip-path="url(#clip66)" clip-rule="nonzero">
<path style=" stroke:none;fill-rule:evenodd;fill:rgb(60%,60%,100%);fill-opacity:1;" d="M 263.351562 199.714844 L 324.226562 199.714844 L 324.226562 165.535156 L 263.351562 165.535156 Z M 263.351562 199.714844 "/>
</g>
<g clip-path="url(#clip67)" clip-rule="nonzero">
<path style=" stroke:none;fill-rule:evenodd;fill:rgb(87.45098%,0.392157%,0.392157%);fill-opacity:1;" d="M 263.351562 209.480469 L 324.226562 209.480469 L 324.226562 199.714844 L 263.351562 199.714844 Z M 263.351562 209.480469 "/>
</g>
<g clip-path="url(#clip68)" clip-rule="nonzero">
<path style=" stroke:none;fill-rule:evenodd;fill:rgb(12.941176%,12.941176%,85.098039%);fill-opacity:1;" d="M 324.222656 165.535156 L 385.097656 165.535156 L 385.097656 160.652344 L 324.222656 160.652344 Z M 324.222656 165.535156 "/>
</g>
<path style=" stroke:none;fill-rule:evenodd;fill:rgb(60%,60%,100%);fill-opacity:1;" d="M 324.222656 204.597656 L 385.097656 204.597656 L 385.097656 165.535156 L 324.222656 165.535156 Z M 324.222656 204.597656 "/>
<g clip-path="url(#clip69)" clip-rule="nonzero">
<path style=" stroke:none;fill-rule:evenodd;fill:rgb(87.45098%,0.392157%,0.392157%);fill-opacity:1;" d="M 324.222656 209.480469 L 385.097656 209.480469 L 385.097656 204.597656 L 324.222656 204.597656 Z M 324.222656 209.480469 "/>
</g>
<g clip-path="url(#clip70)" clip-rule="nonzero">
<path style=" stroke:none;fill-rule:evenodd;fill:rgb(12.941176%,12.941176%,85.098039%);fill-opacity:1;" d="M 385.097656 185.066406 L 445.972656 185.066406 L 445.972656 160.652344 L 385.097656 160.652344 Z M 385.097656 185.066406 "/>
</g>
<path style=" stroke:none;fill-rule:evenodd;fill:rgb(60%,60%,100%);fill-opacity:1;" d="M 385.097656 204.597656 L 445.972656 204.597656 L 445.972656 185.066406 L 385.097656 185.066406 Z M 385.097656 204.597656 "/>
<g clip-path="url(#clip71)" clip-rule="nonzero">
<path style=" stroke:none;fill-rule:evenodd;fill:rgb(87.45098%,0.392157%,0.392157%);fill-opacity:1;" d="M 385.097656 209.480469 L 445.972656 209.480469 L 445.972656 204.597656 L 385.097656 204.597656 Z M 385.097656 209.480469 "/>
</g>
<g clip-path="url(#clip72)" clip-rule="nonzero">
<path style=" stroke:none;fill-rule:evenodd;fill:rgb(12.941176%,12.941176%,85.098039%);fill-opacity:1;" d="M 445.96875 189.949219 L 506.84375 189.949219 L 506.84375 160.652344 L 445.96875 160.652344 Z M 445.96875 189.949219 "/>
</g>
<g clip-path="url(#clip73)" clip-rule="nonzero">
<path style=" stroke:none;fill-rule:evenodd;fill:rgb(60%,60%,100%);fill-opacity:1;" d="M 445.96875 199.714844 L 506.84375 199.714844 L 506.84375 189.949219 L 445.96875 189.949219 Z M 445.96875 199.714844 "/>
</g>
<g clip-path="url(#clip74)" clip-rule="nonzero">
<path style=" stroke:none;fill-rule:evenodd;fill:rgb(87.45098%,0.392157%,0.392157%);fill-opacity:1;" d="M 445.96875 209.480469 L 506.84375 209.480469 L 506.84375 199.714844 L 445.96875 199.714844 Z M 445.96875 209.480469 "/>
</g>
<path style=" stroke:none;fill-rule:evenodd;fill:rgb(30.196078%,30.196078%,30.196078%);fill-opacity:1;" d="M 512.1875 26.882812 L 515.109375 24.464844 L 514.507812 23.675781 L 512.1875 23.675781 L 512.1875 22.851562 L 518.238281 22.851562 L 518.238281 23.675781 L 515.207031 23.675781 L 518.238281 26.589844 L 518.238281 27.558594 L 515.609375 24.980469 L 512.1875 27.902344 Z M 512.1875 26.882812 "/>
<path style=" stroke:none;fill-rule:evenodd;fill:rgb(30.196078%,30.196078%,30.196078%);fill-opacity:1;" d="M 515.863281 28.429688 L 516.5 28.429688 L 516.5 32.707031 L 515.863281 32.707031 Z M 513.664062 28.429688 L 514.300781 28.429688 L 514.300781 32.707031 L 513.664062 32.707031 Z M 513.664062 28.429688 "/>
<path style=" stroke:none;fill-rule:evenodd;fill:rgb(30.196078%,30.196078%,30.196078%);fill-opacity:1;" d="M 512.1875 33.582031 L 512.730469 33.582031 L 512.832031 33.628906 L 512.925781 33.675781 L 513.023438 33.722656 L 513.203125 33.824219 L 513.292969 33.878906 L 513.375 33.9375 L 513.457031 33.992188 L 513.539062 34.054688 L 513.617188 34.117188 L 513.691406 34.179688 L 513.769531 34.242188 L 513.839844 34.308594 L 513.914062 34.375 L 513.984375 34.441406 L 514.050781 34.507812 L 514.121094 34.574219 L 514.1875 34.644531 L 514.25 34.710938 L 514.4375 34.921875 L 514.496094 34.988281 L 514.613281 35.128906 L 514.671875 35.195312 L 514.730469 35.265625 L 514.785156 35.332031 L 514.839844 35.402344 L 514.894531 35.46875 L 514.945312 35.535156 L 515 35.605469 L 515.050781 35.667969 L 515.105469 35.734375 L 515.160156 35.796875 L 515.210938 35.855469 L 515.265625 35.917969 L 515.320312 35.976562 L 515.371094 36.03125 L 515.53125 36.191406 L 515.585938 36.242188 L 515.644531 36.289062 L 515.699219 36.335938 L 515.753906 36.378906 L 515.8125 36.421875 L 515.867188 36.457031 L 515.925781 36.496094 L 515.984375 36.53125 L 516.042969 36.5625 L 516.105469 36.59375 L 516.230469 36.640625 L 516.296875 36.660156 L 516.363281 36.675781 L 516.429688 36.6875 L 516.5 36.695312 L 516.574219 36.699219 L 516.644531 36.703125 L 516.695312 36.703125 L 516.746094 36.699219 L 516.839844 36.691406 L 516.933594 36.675781 L 516.976562 36.664062 L 517.015625 36.652344 L 517.058594 36.640625 L 517.136719 36.609375 L 517.171875 36.589844 L 517.210938 36.570312 L 517.246094 36.550781 L 517.277344 36.53125 L 517.3125 36.507812 L 517.34375 36.484375 L 517.371094 36.457031 L 517.402344 36.429688 L 517.429688 36.402344 L 517.5 36.308594 L 517.523438 36.273438 L 517.582031 36.167969 L 517.613281 36.089844 L 517.625 36.050781 L 517.660156 35.921875 L 517.675781 35.835938 L 517.683594 35.789062 L 517.695312 35.648438 L 517.695312 35.550781 L 517.691406 35.507812 L 517.6875 35.460938 L 517.683594 35.417969 L 517.679688 35.371094 L 517.664062 35.285156 L 517.640625 35.199219 L 517.617188 35.121094 L 517.585938 35.042969 L 517.566406 35.003906 L 517.550781 34.96875 L 517.527344 34.933594 L 517.507812 34.898438 L 517.484375 34.863281 L 517.460938 34.832031 L 517.4375 34.796875 L 517.410156 34.765625 L 517.324219 34.679688 L 517.292969 34.652344 L 517.257812 34.628906 L 517.222656 34.601562 L 517.1875 34.578125 L 517.152344 34.558594 L 517.113281 34.535156 L 517.074219 34.515625 L 516.996094 34.484375 L 516.910156 34.453125 L 516.863281 34.441406 L 516.816406 34.433594 L 516.769531 34.421875 L 516.722656 34.414062 L 516.671875 34.40625 L 516.746094 33.617188 L 516.808594 33.625 L 516.875 33.636719 L 516.9375 33.648438 L 517.0625 33.679688 L 517.121094 33.699219 L 517.183594 33.722656 L 517.300781 33.769531 L 517.359375 33.796875 L 517.414062 33.828125 L 517.472656 33.859375 L 517.523438 33.890625 L 517.578125 33.929688 L 517.628906 33.964844 L 517.679688 34.007812 L 517.726562 34.046875 L 517.773438 34.09375 L 517.816406 34.140625 L 517.863281 34.1875 L 517.90625 34.238281 L 518.023438 34.402344 L 518.058594 34.460938 L 518.152344 34.648438 L 518.179688 34.71875 L 518.207031 34.785156 L 518.230469 34.855469 L 518.25 34.929688 L 518.269531 35.007812 L 518.300781 35.164062 L 518.308594 35.246094 L 518.320312 35.332031 L 518.324219 35.417969 L 518.332031 35.597656 L 518.328125 35.6875 L 518.320312 35.859375 L 518.304688 36.023438 L 518.292969 36.105469 L 518.277344 36.179688 L 518.261719 36.257812 L 518.242188 36.328125 L 518.222656 36.402344 L 518.199219 36.46875 L 518.175781 36.539062 L 518.121094 36.664062 L 518.089844 36.726562 L 518.058594 36.785156 L 518.023438 36.839844 L 517.984375 36.894531 L 517.90625 36.996094 L 517.863281 37.042969 L 517.769531 37.128906 L 517.71875 37.171875 L 517.667969 37.210938 L 517.617188 37.246094 L 517.5625 37.28125 L 517.503906 37.3125 L 517.386719 37.367188 L 517.320312 37.390625 L 517.257812 37.414062 L 517.191406 37.433594 L 517.050781 37.464844 L 516.980469 37.476562 L 516.90625 37.484375 L 516.828125 37.492188 L 516.75 37.496094 L 516.609375 37.496094 L 516.492188 37.488281 L 516.433594 37.480469 L 516.316406 37.457031 L 516.257812 37.441406 L 516.203125 37.425781 L 516.148438 37.40625 L 516.089844 37.386719 L 516.035156 37.363281 L 515.984375 37.339844 L 515.875 37.285156 L 515.824219 37.257812 L 515.769531 37.226562 L 515.667969 37.164062 L 515.566406 37.09375 L 515.519531 37.054688 L 515.46875 37.019531 L 515.417969 36.980469 L 515.371094 36.9375 L 515.324219 36.898438 L 515.273438 36.855469 L 515.226562 36.8125 L 515.039062 36.625 L 514.992188 36.574219 L 514.949219 36.527344 L 514.855469 36.425781 L 514.8125 36.375 L 514.71875 36.273438 L 514.675781 36.222656 L 514.628906 36.167969 L 514.585938 36.117188 L 514.542969 36.0625 L 514.5 36.011719 L 514.457031 35.957031 L 514.410156 35.90625 L 514.367188 35.851562 L 514.324219 35.800781 L 514.28125 35.746094 L 514.234375 35.695312 L 514.148438 35.585938 L 513.890625 35.28125 L 513.847656 35.234375 L 513.800781 35.183594 L 513.757812 35.136719 L 513.714844 35.09375 L 513.671875 35.046875 L 513.625 35.003906 L 513.582031 34.960938 L 513.535156 34.917969 L 513.492188 34.875 L 513.449219 34.835938 L 513.355469 34.757812 L 513.3125 34.722656 L 513.265625 34.683594 L 513.222656 34.652344 L 513.175781 34.617188 L 513.128906 34.585938 L 513.082031 34.558594 L 513.035156 34.527344 L 512.988281 34.503906 L 512.941406 34.476562 L 512.890625 34.453125 L 512.84375 34.433594 L 512.84375 37.589844 L 512.1875 37.589844 Z M 512.1875 33.582031 "/>
<path style=" stroke:none;fill-rule:evenodd;fill:rgb(30.196078%,30.196078%,30.196078%);fill-opacity:1;" d="M 512.1875 78.546875 L 515.109375 76.125 L 514.507812 75.335938 L 512.1875 75.335938 L 512.1875 74.515625 L 518.238281 74.515625 L 518.238281 75.335938 L 515.207031 75.335938 L 518.238281 78.253906 L 518.238281 79.21875 L 515.609375 76.640625 L 512.1875 79.5625 Z M 512.1875 78.546875 "/>
<path style=" stroke:none;fill-rule:evenodd;fill:rgb(30.196078%,30.196078%,30.196078%);fill-opacity:1;" d="M 515.863281 80.09375 L 516.5 80.09375 L 516.5 84.367188 L 515.863281 84.367188 Z M 513.664062 80.09375 L 514.300781 80.09375 L 514.300781 84.367188 L 513.664062 84.367188 Z M 513.664062 80.09375 "/>
<path style=" stroke:none;fill-rule:evenodd;fill:rgb(30.196078%,30.196078%,30.196078%);fill-opacity:1;" d="M 512.1875 85.242188 L 512.730469 85.242188 L 512.832031 85.289062 L 512.925781 85.335938 L 513.023438 85.382812 L 513.113281 85.433594 L 513.203125 85.488281 L 513.292969 85.539062 L 513.539062 85.714844 L 513.617188 85.777344 L 513.691406 85.839844 L 513.769531 85.90625 L 513.839844 85.96875 L 513.914062 86.035156 L 513.984375 86.101562 L 514.1875 86.304688 L 514.25 86.375 L 514.3125 86.441406 L 514.4375 86.582031 L 514.496094 86.652344 L 514.554688 86.71875 L 514.613281 86.789062 L 514.671875 86.855469 L 514.730469 86.925781 L 514.785156 86.992188 L 514.839844 87.0625 L 514.894531 87.128906 L 514.945312 87.199219 L 515 87.265625 L 515.050781 87.332031 L 515.160156 87.457031 L 515.210938 87.519531 L 515.320312 87.636719 L 515.371094 87.691406 L 515.425781 87.75 L 515.53125 87.855469 L 515.585938 87.90625 L 515.644531 87.953125 L 515.753906 88.039062 L 515.8125 88.082031 L 515.867188 88.121094 L 515.984375 88.191406 L 516.042969 88.222656 L 516.105469 88.253906 L 516.230469 88.300781 L 516.296875 88.320312 L 516.363281 88.335938 L 516.429688 88.347656 L 516.5 88.355469 L 516.574219 88.363281 L 516.695312 88.363281 L 516.746094 88.359375 L 516.839844 88.351562 L 516.933594 88.335938 L 516.976562 88.324219 L 517.015625 88.3125 L 517.058594 88.300781 L 517.136719 88.269531 L 517.171875 88.253906 L 517.210938 88.234375 L 517.246094 88.214844 L 517.277344 88.191406 L 517.3125 88.167969 L 517.34375 88.144531 L 517.371094 88.117188 L 517.402344 88.089844 L 517.429688 88.0625 L 517.523438 87.9375 L 517.5625 87.867188 L 517.582031 87.828125 L 517.613281 87.75 L 517.625 87.710938 L 517.636719 87.667969 L 517.648438 87.628906 L 517.660156 87.585938 L 517.667969 87.542969 L 517.683594 87.449219 L 517.6875 87.40625 L 517.691406 87.355469 L 517.695312 87.308594 L 517.695312 87.214844 L 517.6875 87.121094 L 517.679688 87.035156 L 517.671875 86.988281 L 517.664062 86.945312 L 517.652344 86.90625 L 517.628906 86.820312 L 517.617188 86.78125 L 517.585938 86.703125 L 517.566406 86.667969 L 517.550781 86.628906 L 517.527344 86.59375 L 517.507812 86.558594 L 517.484375 86.523438 L 517.4375 86.460938 L 517.382812 86.398438 L 517.351562 86.371094 L 517.324219 86.339844 L 517.292969 86.316406 L 517.257812 86.289062 L 517.152344 86.21875 L 517.035156 86.160156 L 516.996094 86.144531 L 516.953125 86.128906 L 516.910156 86.117188 L 516.769531 86.082031 L 516.722656 86.074219 L 516.671875 86.070312 L 516.746094 85.277344 L 516.808594 85.285156 L 516.875 85.296875 L 516.9375 85.3125 L 517 85.324219 L 517.0625 85.34375 L 517.121094 85.363281 L 517.183594 85.382812 L 517.300781 85.429688 L 517.359375 85.457031 L 517.414062 85.488281 L 517.472656 85.519531 L 517.523438 85.554688 L 517.578125 85.589844 L 517.679688 85.667969 L 517.773438 85.753906 L 517.816406 85.800781 L 517.863281 85.851562 L 517.90625 85.902344 L 517.945312 85.953125 L 517.984375 86.007812 L 518.023438 86.066406 L 518.058594 86.125 L 518.089844 86.183594 L 518.121094 86.246094 L 518.152344 86.3125 L 518.207031 86.445312 L 518.230469 86.519531 L 518.269531 86.667969 L 518.285156 86.746094 L 518.300781 86.828125 L 518.308594 86.910156 L 518.320312 86.992188 L 518.324219 87.078125 L 518.332031 87.257812 L 518.324219 87.4375 L 518.320312 87.519531 L 518.3125 87.605469 L 518.304688 87.6875 L 518.292969 87.765625 L 518.277344 87.84375 L 518.261719 87.917969 L 518.242188 87.992188 L 518.222656 88.0625 L 518.199219 88.132812 L 518.175781 88.199219 L 518.148438 88.265625 L 518.121094 88.328125 L 518.058594 88.445312 L 518.023438 88.5 L 517.984375 88.554688 L 517.90625 88.65625 L 517.863281 88.703125 L 517.816406 88.75 L 517.769531 88.792969 L 517.667969 88.871094 L 517.617188 88.90625 L 517.5625 88.941406 L 517.445312 89.003906 L 517.386719 89.03125 L 517.320312 89.054688 L 517.257812 89.074219 L 517.191406 89.09375 L 517.121094 89.113281 L 516.980469 89.136719 L 516.90625 89.148438 L 516.671875 89.160156 L 516.609375 89.15625 L 516.492188 89.148438 L 516.433594 89.140625 L 516.257812 89.105469 L 516.148438 89.066406 L 516.089844 89.046875 L 516.035156 89.023438 L 515.984375 89 L 515.929688 88.976562 L 515.875 88.949219 L 515.824219 88.917969 L 515.769531 88.890625 L 515.71875 88.859375 L 515.566406 88.753906 L 515.519531 88.71875 L 515.417969 88.640625 L 515.371094 88.601562 L 515.324219 88.558594 L 515.273438 88.515625 L 515.226562 88.472656 L 515.179688 88.425781 L 515.132812 88.382812 L 515.085938 88.332031 L 515.039062 88.285156 L 514.992188 88.234375 L 514.949219 88.1875 L 514.855469 88.085938 L 514.8125 88.035156 L 514.71875 87.933594 L 514.675781 87.882812 L 514.628906 87.832031 L 514.585938 87.777344 L 514.542969 87.726562 L 514.5 87.671875 L 514.457031 87.621094 L 514.410156 87.566406 L 514.367188 87.515625 L 514.324219 87.460938 L 514.28125 87.410156 L 514.234375 87.355469 L 514.191406 87.300781 L 514.148438 87.25 L 514.105469 87.195312 L 513.933594 86.992188 L 513.890625 86.945312 L 513.847656 86.894531 L 513.800781 86.847656 L 513.671875 86.707031 L 513.625 86.664062 L 513.582031 86.621094 L 513.535156 86.578125 L 513.492188 86.539062 L 513.449219 86.496094 L 513.402344 86.457031 L 513.355469 86.421875 L 513.3125 86.382812 L 513.265625 86.347656 L 513.222656 86.3125 L 513.175781 86.277344 L 513.128906 86.246094 L 512.988281 86.164062 L 512.941406 86.140625 L 512.890625 86.117188 L 512.84375 86.09375 L 512.84375 89.253906 L 512.1875 89.253906 Z M 512.1875 85.242188 "/>
<path style=" stroke:none;fill-rule:evenodd;fill:rgb(30.196078%,30.196078%,30.196078%);fill-opacity:1;" d="M 512.1875 130.207031 L 515.109375 127.789062 L 514.507812 126.996094 L 512.1875 126.996094 L 512.1875 126.175781 L 518.238281 126.175781 L 518.238281 126.996094 L 515.207031 126.996094 L 518.238281 129.914062 L 518.238281 130.882812 L 515.609375 128.304688 L 512.1875 131.226562 Z M 512.1875 130.207031 "/>
<path style=" stroke:none;fill-rule:evenodd;fill:rgb(30.196078%,30.196078%,30.196078%);fill-opacity:1;" d="M 515.863281 131.753906 L 516.5 131.753906 L 516.5 136.027344 L 515.863281 136.027344 Z M 513.664062 131.753906 L 514.300781 131.753906 L 514.300781 136.027344 L 513.664062 136.027344 Z M 513.664062 131.753906 "/>
<path style=" stroke:none;fill-rule:evenodd;fill:rgb(30.196078%,30.196078%,30.196078%);fill-opacity:1;" d="M 513.855469 140.96875 L 513.773438 140.96875 L 513.695312 140.964844 L 513.613281 140.957031 L 513.539062 140.949219 L 513.460938 140.9375 L 513.390625 140.921875 L 513.316406 140.902344 L 513.246094 140.882812 L 513.179688 140.859375 L 513.113281 140.832031 L 513.050781 140.804688 L 512.925781 140.742188 L 512.867188 140.707031 L 512.8125 140.667969 L 512.703125 140.582031 L 512.65625 140.535156 L 512.605469 140.488281 L 512.558594 140.4375 L 512.472656 140.328125 L 512.433594 140.269531 L 512.398438 140.210938 L 512.363281 140.148438 L 512.328125 140.082031 L 512.296875 140.011719 L 512.269531 139.941406 L 512.214844 139.792969 L 512.175781 139.636719 L 512.15625 139.554688 L 512.140625 139.46875 L 512.128906 139.382812 L 512.117188 139.292969 L 512.109375 139.203125 L 512.101562 139.015625 L 512.101562 138.804688 L 512.105469 138.699219 L 512.113281 138.59375 L 512.121094 138.492188 L 512.132812 138.398438 L 512.148438 138.304688 L 512.167969 138.214844 L 512.1875 138.128906 L 512.210938 138.046875 L 512.238281 137.964844 L 512.265625 137.890625 L 512.328125 137.75 L 512.363281 137.683594 L 512.402344 137.617188 L 512.4375 137.554688 L 512.476562 137.496094 L 512.5625 137.386719 L 512.605469 137.335938 L 512.652344 137.285156 L 512.703125 137.242188 L 512.75 137.195312 L 512.800781 137.15625 L 512.855469 137.117188 L 512.90625 137.082031 L 512.960938 137.046875 L 513.015625 137.015625 L 513.132812 136.960938 L 513.25 136.914062 L 513.308594 136.894531 L 513.371094 136.875 L 513.433594 136.859375 L 513.492188 136.84375 L 513.554688 136.828125 L 513.679688 136.804688 L 513.742188 136.796875 L 513.8125 137.597656 L 513.671875 137.621094 L 513.585938 137.644531 L 513.539062 137.660156 L 513.5 137.671875 L 513.414062 137.703125 L 513.335938 137.742188 L 513.300781 137.761719 L 513.261719 137.785156 L 513.191406 137.832031 L 513.160156 137.859375 L 513.125 137.886719 L 513.09375 137.914062 L 513.066406 137.945312 L 513.035156 137.976562 L 513.007812 138.007812 L 512.980469 138.042969 L 512.933594 138.113281 L 512.910156 138.152344 L 512.890625 138.191406 L 512.832031 138.320312 L 512.800781 138.414062 L 512.789062 138.460938 L 512.777344 138.511719 L 512.769531 138.566406 L 512.757812 138.621094 L 512.753906 138.675781 L 512.746094 138.734375 L 512.742188 138.792969 L 512.742188 138.855469 L 512.738281 138.917969 L 512.742188 139.03125 L 512.75 139.140625 L 512.765625 139.242188 L 512.785156 139.34375 L 512.8125 139.4375 L 512.84375 139.527344 L 512.882812 139.609375 L 512.925781 139.6875 L 512.972656 139.761719 L 513.027344 139.832031 L 513.089844 139.894531 L 513.152344 139.953125 L 513.226562 140.003906 L 513.304688 140.046875 L 513.386719 140.082031 L 513.472656 140.113281 L 513.566406 140.136719 L 513.667969 140.152344 L 513.773438 140.164062 L 513.882812 140.167969 L 513.949219 140.164062 L 514.011719 140.160156 L 514.128906 140.144531 L 514.238281 140.113281 L 514.285156 140.09375 L 514.332031 140.070312 L 514.378906 140.042969 L 514.421875 140.015625 L 514.5 139.953125 L 514.535156 139.921875 L 514.570312 139.886719 L 514.601562 139.851562 L 514.664062 139.773438 L 514.691406 139.734375 L 514.738281 139.648438 L 514.761719 139.601562 L 514.78125 139.558594 L 514.820312 139.464844 L 514.835938 139.417969 L 514.847656 139.367188 L 514.863281 139.320312 L 514.875 139.269531 L 514.882812 139.21875 L 514.894531 139.164062 L 514.898438 139.113281 L 514.90625 139.0625 L 514.914062 139.015625 L 514.917969 138.964844 L 514.929688 138.824219 L 514.929688 138.25 L 515.601562 138.25 L 515.601562 138.757812 L 515.605469 138.804688 L 515.609375 138.847656 L 515.621094 138.988281 L 515.628906 139.03125 L 515.644531 139.125 L 515.679688 139.265625 L 515.726562 139.394531 L 515.746094 139.4375 L 515.785156 139.515625 L 515.832031 139.59375 L 515.859375 139.632812 L 515.886719 139.667969 L 515.917969 139.703125 L 515.980469 139.765625 L 516.015625 139.796875 L 516.050781 139.824219 L 516.128906 139.878906 L 516.214844 139.925781 L 516.261719 139.945312 L 516.308594 139.960938 L 516.359375 139.976562 L 516.414062 139.988281 L 516.523438 140.003906 L 516.585938 140.007812 L 516.644531 140.007812 L 516.742188 140.003906 L 516.832031 139.996094 L 516.917969 139.980469 L 517 139.960938 L 517.078125 139.9375 L 517.152344 139.902344 L 517.222656 139.867188 L 517.289062 139.824219 L 517.351562 139.773438 L 517.410156 139.71875 L 517.464844 139.660156 L 517.511719 139.59375 L 517.554688 139.523438 L 517.59375 139.449219 L 517.625 139.367188 L 517.648438 139.277344 L 517.667969 139.1875 L 517.683594 139.085938 L 517.691406 138.984375 L 517.695312 138.875 L 517.691406 138.773438 L 517.683594 138.675781 L 517.671875 138.582031 L 517.652344 138.496094 L 517.628906 138.410156 L 517.601562 138.328125 L 517.566406 138.253906 L 517.527344 138.179688 L 517.480469 138.109375 L 517.433594 138.042969 L 517.378906 137.984375 L 517.320312 137.929688 L 517.253906 137.878906 L 517.1875 137.835938 L 517.117188 137.796875 L 517.039062 137.761719 L 516.960938 137.734375 L 516.875 137.710938 L 516.785156 137.691406 L 516.691406 137.679688 L 516.753906 136.902344 L 516.832031 136.910156 L 516.910156 136.925781 L 516.984375 136.941406 L 517.054688 136.957031 L 517.128906 136.980469 L 517.261719 137.027344 L 517.328125 137.054688 L 517.390625 137.085938 L 517.507812 137.15625 L 517.5625 137.191406 L 517.617188 137.230469 L 517.671875 137.273438 L 517.71875 137.316406 L 517.769531 137.359375 L 517.8125 137.40625 L 517.859375 137.453125 L 517.9375 137.554688 L 518.015625 137.664062 L 518.046875 137.71875 L 518.082031 137.777344 L 518.109375 137.839844 L 518.140625 137.898438 L 518.164062 137.964844 L 518.1875 138.027344 L 518.210938 138.09375 L 518.25 138.226562 L 518.28125 138.367188 L 518.292969 138.4375 L 518.304688 138.511719 L 518.3125 138.582031 L 518.328125 138.730469 L 518.328125 138.804688 L 518.332031 138.882812 L 518.324219 139.078125 L 518.320312 139.171875 L 518.308594 139.265625 L 518.285156 139.4375 L 518.265625 139.523438 L 518.226562 139.679688 L 518.203125 139.753906 L 518.148438 139.894531 L 518.117188 139.960938 L 518.054688 140.085938 L 518.019531 140.144531 L 517.941406 140.253906 L 517.898438 140.304688 L 517.859375 140.351562 L 517.8125 140.398438 L 517.769531 140.4375 L 517.722656 140.480469 L 517.671875 140.515625 L 517.625 140.550781 L 517.570312 140.585938 L 517.519531 140.613281 L 517.464844 140.644531 L 517.40625 140.667969 L 517.351562 140.691406 L 517.292969 140.710938 L 517.230469 140.730469 L 517.171875 140.746094 L 517.109375 140.761719 L 516.984375 140.785156 L 516.921875 140.792969 L 516.859375 140.796875 L 516.792969 140.800781 L 516.621094 140.800781 L 516.570312 140.796875 L 516.519531 140.789062 L 516.46875 140.785156 L 516.421875 140.777344 L 516.371094 140.765625 L 516.230469 140.730469 L 516.183594 140.714844 L 516.136719 140.695312 L 516.09375 140.679688 L 516.050781 140.65625 L 516.007812 140.636719 L 515.96875 140.613281 L 515.925781 140.585938 L 515.847656 140.53125 L 515.742188 140.4375 L 515.707031 140.402344 L 515.671875 140.363281 L 515.609375 140.285156 L 515.578125 140.242188 L 515.550781 140.199219 L 515.519531 140.152344 L 515.496094 140.105469 L 515.46875 140.058594 L 515.421875 139.957031 L 515.398438 139.902344 L 515.378906 139.84375 L 515.359375 139.789062 L 515.339844 139.726562 L 515.308594 139.601562 L 515.292969 139.535156 L 515.273438 139.535156 L 515.257812 139.675781 L 515.242188 139.746094 L 515.230469 139.8125 L 515.214844 139.875 L 515.175781 140 L 515.15625 140.058594 L 515.132812 140.117188 L 515.109375 140.171875 L 515.082031 140.222656 L 515.054688 140.277344 L 515.027344 140.324219 L 514.964844 140.417969 L 514.902344 140.503906 L 514.832031 140.582031 L 514.753906 140.652344 L 514.675781 140.714844 L 514.632812 140.746094 L 514.59375 140.769531 L 514.546875 140.796875 L 514.503906 140.820312 L 514.457031 140.84375 L 514.410156 140.863281 L 514.363281 140.878906 L 514.316406 140.898438 L 514.265625 140.914062 L 514.21875 140.925781 L 514.117188 140.949219 L 514.066406 140.957031 L 514.015625 140.960938 L 513.960938 140.964844 L 513.910156 140.96875 Z M 513.855469 140.96875 "/>
<path style=" stroke:none;fill-rule:evenodd;fill:rgb(30.196078%,30.196078%,30.196078%);fill-opacity:1;" d="M 512.1875 181.867188 L 515.109375 179.449219 L 514.507812 178.65625 L 512.1875 178.65625 L 512.1875 177.835938 L 518.238281 177.835938 L 518.238281 178.65625 L 515.207031 178.65625 L 518.238281 181.574219 L 518.238281 182.542969 L 515.609375 179.964844 L 512.1875 182.886719 Z M 512.1875 181.867188 "/>
<path style=" stroke:none;fill-rule:evenodd;fill:rgb(30.196078%,30.196078%,30.196078%);fill-opacity:1;" d="M 515.863281 183.414062 L 516.5 183.414062 L 516.5 187.691406 L 515.863281 187.691406 Z M 513.664062 183.414062 L 514.300781 183.414062 L 514.300781 187.691406 L 513.664062 187.691406 Z M 513.664062 183.414062 "/>
<path style=" stroke:none;fill-rule:evenodd;fill:rgb(30.196078%,30.196078%,30.196078%);fill-opacity:1;" d="M 513.855469 192.632812 L 513.773438 192.628906 L 513.695312 192.625 L 513.613281 192.621094 L 513.539062 192.609375 L 513.460938 192.597656 L 513.390625 192.582031 L 513.316406 192.5625 L 513.246094 192.542969 L 513.179688 192.519531 L 513.113281 192.492188 L 512.988281 192.4375 L 512.925781 192.402344 L 512.867188 192.367188 L 512.757812 192.289062 L 512.703125 192.246094 L 512.605469 192.148438 L 512.558594 192.097656 L 512.515625 192.046875 L 512.472656 191.992188 L 512.433594 191.933594 L 512.363281 191.808594 L 512.328125 191.742188 L 512.296875 191.675781 L 512.269531 191.605469 L 512.242188 191.53125 L 512.214844 191.453125 L 512.175781 191.296875 L 512.15625 191.214844 L 512.140625 191.128906 L 512.117188 190.957031 L 512.109375 190.863281 L 512.101562 190.675781 L 512.101562 190.46875 L 512.105469 190.359375 L 512.113281 190.253906 L 512.121094 190.15625 L 512.132812 190.058594 L 512.148438 189.964844 L 512.167969 189.875 L 512.1875 189.789062 L 512.210938 189.707031 L 512.238281 189.628906 L 512.265625 189.554688 L 512.296875 189.480469 L 512.328125 189.410156 L 512.363281 189.34375 L 512.402344 189.277344 L 512.4375 189.21875 L 512.476562 189.15625 L 512.5625 189.046875 L 512.605469 188.996094 L 512.652344 188.949219 L 512.703125 188.902344 L 512.75 188.859375 L 512.800781 188.816406 L 512.855469 188.777344 L 512.90625 188.742188 L 512.960938 188.707031 L 513.015625 188.675781 L 513.132812 188.621094 L 513.191406 188.597656 L 513.25 188.578125 L 513.308594 188.554688 L 513.371094 188.535156 L 513.433594 188.519531 L 513.492188 188.503906 L 513.554688 188.492188 L 513.617188 188.476562 L 513.742188 188.460938 L 513.8125 189.257812 L 513.71875 189.273438 L 513.671875 189.285156 L 513.585938 189.308594 L 513.539062 189.320312 L 513.5 189.335938 L 513.457031 189.347656 L 513.414062 189.367188 L 513.375 189.382812 L 513.335938 189.402344 L 513.300781 189.421875 L 513.261719 189.445312 L 513.191406 189.492188 L 513.160156 189.519531 L 513.125 189.546875 L 513.09375 189.574219 L 513.066406 189.605469 L 513.035156 189.636719 L 513.007812 189.667969 L 512.980469 189.703125 L 512.957031 189.738281 L 512.933594 189.777344 L 512.910156 189.8125 L 512.890625 189.855469 L 512.871094 189.894531 L 512.832031 189.980469 L 512.800781 190.074219 L 512.777344 190.175781 L 512.769531 190.226562 L 512.757812 190.28125 L 512.753906 190.335938 L 512.746094 190.394531 L 512.742188 190.453125 L 512.742188 190.515625 L 512.738281 190.578125 L 512.742188 190.691406 L 512.75 190.800781 L 512.765625 190.90625 L 512.785156 191.003906 L 512.8125 191.097656 L 512.84375 191.1875 L 512.882812 191.273438 L 512.925781 191.351562 L 512.972656 191.425781 L 513.027344 191.492188 L 513.089844 191.554688 L 513.152344 191.613281 L 513.226562 191.664062 L 513.304688 191.707031 L 513.386719 191.746094 L 513.472656 191.773438 L 513.566406 191.796875 L 513.667969 191.816406 L 513.773438 191.824219 L 513.882812 191.828125 L 513.949219 191.828125 L 514.011719 191.820312 L 514.070312 191.816406 L 514.128906 191.804688 L 514.238281 191.773438 L 514.285156 191.753906 L 514.378906 191.707031 L 514.421875 191.675781 L 514.460938 191.648438 L 514.5 191.617188 L 514.570312 191.546875 L 514.601562 191.511719 L 514.664062 191.433594 L 514.691406 191.394531 L 514.761719 191.265625 L 514.820312 191.125 L 514.835938 191.078125 L 514.847656 191.03125 L 514.863281 190.980469 L 514.875 190.929688 L 514.882812 190.878906 L 514.894531 190.828125 L 514.898438 190.777344 L 514.914062 190.675781 L 514.917969 190.625 L 514.929688 190.484375 L 514.929688 189.910156 L 515.601562 189.910156 L 515.601562 190.421875 L 515.605469 190.464844 L 515.609375 190.511719 L 515.613281 190.554688 L 515.621094 190.648438 L 515.644531 190.789062 L 515.667969 190.882812 L 515.679688 190.925781 L 515.695312 190.96875 L 515.710938 191.015625 L 515.726562 191.054688 L 515.765625 191.140625 L 515.785156 191.179688 L 515.832031 191.257812 L 515.886719 191.328125 L 515.949219 191.398438 L 515.980469 191.429688 L 516.015625 191.457031 L 516.050781 191.488281 L 516.089844 191.515625 L 516.128906 191.539062 L 516.171875 191.566406 L 516.214844 191.585938 L 516.261719 191.605469 L 516.308594 191.621094 L 516.359375 191.636719 L 516.414062 191.648438 L 516.523438 191.664062 L 516.585938 191.667969 L 516.742188 191.667969 L 516.832031 191.65625 L 516.917969 191.644531 L 517 191.621094 L 517.078125 191.597656 L 517.152344 191.566406 L 517.222656 191.527344 L 517.289062 191.484375 L 517.351562 191.4375 L 517.410156 191.382812 L 517.464844 191.320312 L 517.511719 191.257812 L 517.554688 191.1875 L 517.59375 191.109375 L 517.625 191.027344 L 517.648438 190.941406 L 517.667969 190.847656 L 517.683594 190.75 L 517.691406 190.644531 L 517.695312 190.535156 L 517.691406 190.433594 L 517.683594 190.339844 L 517.671875 190.246094 L 517.652344 190.15625 L 517.628906 190.070312 L 517.601562 189.992188 L 517.566406 189.914062 L 517.527344 189.839844 L 517.480469 189.769531 L 517.433594 189.707031 L 517.378906 189.644531 L 517.320312 189.589844 L 517.253906 189.539062 L 517.1875 189.496094 L 517.117188 189.457031 L 517.039062 189.421875 L 516.960938 189.394531 L 516.875 189.371094 L 516.785156 189.351562 L 516.691406 189.339844 L 516.753906 188.5625 L 516.910156 188.585938 L 516.984375 188.601562 L 517.054688 188.621094 L 517.128906 188.640625 L 517.195312 188.664062 L 517.328125 188.71875 L 517.390625 188.75 L 517.449219 188.78125 L 517.507812 188.816406 L 517.671875 188.933594 L 517.71875 188.976562 L 517.769531 189.019531 L 517.8125 189.066406 L 517.859375 189.113281 L 517.9375 189.214844 L 518.015625 189.324219 L 518.046875 189.382812 L 518.082031 189.441406 L 518.109375 189.5 L 518.140625 189.5625 L 518.1875 189.6875 L 518.210938 189.753906 L 518.230469 189.820312 L 518.25 189.890625 L 518.265625 189.957031 L 518.28125 190.027344 L 518.292969 190.101562 L 518.304688 190.171875 L 518.3125 190.246094 L 518.320312 190.316406 L 518.328125 190.390625 L 518.328125 190.46875 L 518.332031 190.542969 L 518.328125 190.644531 L 518.324219 190.742188 L 518.320312 190.835938 L 518.296875 191.015625 L 518.285156 191.101562 L 518.246094 191.265625 L 518.226562 191.339844 L 518.203125 191.414062 L 518.175781 191.488281 L 518.148438 191.554688 L 518.085938 191.6875 L 518.054688 191.746094 L 518.019531 191.804688 L 517.980469 191.863281 L 517.941406 191.914062 L 517.898438 191.964844 L 517.859375 192.011719 L 517.769531 192.101562 L 517.722656 192.140625 L 517.671875 192.179688 L 517.625 192.214844 L 517.570312 192.246094 L 517.519531 192.277344 L 517.464844 192.304688 L 517.40625 192.328125 L 517.351562 192.351562 L 517.292969 192.375 L 517.230469 192.390625 L 517.171875 192.410156 L 517.109375 192.421875 L 517.046875 192.4375 L 516.859375 192.460938 L 516.792969 192.460938 L 516.726562 192.464844 L 516.675781 192.464844 L 516.621094 192.460938 L 516.519531 192.453125 L 516.46875 192.445312 L 516.421875 192.4375 L 516.371094 192.429688 L 516.277344 192.40625 L 516.136719 192.359375 L 516.050781 192.320312 L 516.007812 192.296875 L 515.96875 192.273438 L 515.925781 192.25 L 515.886719 192.222656 L 515.847656 192.191406 L 515.8125 192.164062 L 515.777344 192.132812 L 515.671875 192.027344 L 515.640625 191.988281 L 515.609375 191.945312 L 515.578125 191.90625 L 515.550781 191.859375 L 515.519531 191.816406 L 515.496094 191.769531 L 515.46875 191.71875 L 515.421875 191.617188 L 515.398438 191.5625 L 515.378906 191.507812 L 515.359375 191.449219 L 515.339844 191.386719 L 515.324219 191.328125 L 515.292969 191.195312 L 515.273438 191.195312 L 515.265625 191.269531 L 515.257812 191.339844 L 515.242188 191.40625 L 515.230469 191.472656 L 515.214844 191.539062 L 515.195312 191.601562 L 515.15625 191.71875 L 515.132812 191.777344 L 515.109375 191.832031 L 515.082031 191.886719 L 515.054688 191.9375 L 515.027344 191.984375 L 514.996094 192.035156 L 514.964844 192.078125 L 514.933594 192.125 L 514.902344 192.164062 L 514.832031 192.242188 L 514.714844 192.347656 L 514.675781 192.375 L 514.632812 192.40625 L 514.59375 192.433594 L 514.546875 192.457031 L 514.503906 192.480469 L 514.457031 192.503906 L 514.363281 192.542969 L 514.316406 192.558594 L 514.265625 192.574219 L 514.21875 192.585938 L 514.117188 192.609375 L 514.015625 192.625 L 513.960938 192.628906 L 513.910156 192.628906 Z M 513.855469 192.632812 "/>
</g>
</svg>
